<svg xmlns="http://www.w3.org/2000/svg" width="340" height="200" viewBox="0 0 340 200"><style>* {
          font-family: 'Segoe UI', Ubuntu, "Helvetica Neue", Sans-Serif
        }</style><rect x="1" y="1" rx="5" ry="5" height="99%" width="99.41176470588235%" stroke="#3f3f3f" stroke-width="1" fill="#3f3f3f" stroke-opacity="1"></rect><text x="30" y="40" style="font-size: 22px; fill: #f0dfaf;">Top Languages by Commit</text><g transform="translate(0,40)"><g transform="translate(40,0)"><rect y="18" width="14" height="14" fill="#7e7eff" stroke="#3f3f3f" style="stroke-width: 1px;"></rect><rect y="43.2" width="14" height="14" fill="#3572A5" stroke="#3f3f3f" style="stroke-width: 1px;"></rect><rect y="68.4" width="14" height="14" fill="#00ADD8" stroke="#3f3f3f" style="stroke-width: 1px;"></rect><rect y="93.60000000000002" width="14" height="14" fill="#844FBA" stroke="#3f3f3f" style="stroke-width: 1px;"></rect><rect y="118.80000000000001" width="14" height="14" fill="#89e051" stroke="#3f3f3f" style="stroke-width: 1px;"></rect><text x="16.8" y="30" style="fill: #dcdccc; font-size: 14px;">Nix</text><text x="16.8" y="55.2" style="fill: #dcdccc; font-size: 14px;">Python</text><text x="16.8" y="80.4" style="fill: #dcdccc; font-size: 14px;">Go</text><text x="16.8" y="105.60000000000002" style="fill: #dcdccc; font-size: 14px;">HCL</text><text x="16.8" y="130.8" style="fill: #dcdccc; font-size: 14px;">Shell</text></g><g transform="translate( 230, 80 )"><g class="arc"><path d="M3.67394039744206e-15,-60A60,60,0,1,1,-43.24848282710994,41.588084028399L-25.228281649147466,24.259715683232752A35,35,0,1,0,2.1431318985078682e-15,-35Z" style="fill: #7e7eff; stroke-width: 2px;" stroke="#3f3f3f"></path></g><g class="arc"><path d="M-43.24848282710994,41.588084028399A60,60,0,0,1,-45.69371187446062,-38.88553323710216L-26.654665260102025,-22.68322772164293A35,35,0,0,0,-25.228281649147466,24.259715683232752Z" style="fill: #3572A5; stroke-width: 2px;" stroke="#3f3f3f"></path></g><g class="arc"><path d="M-45.69371187446062,-38.88553323710216A60,60,0,0,1,-25.581003123767772,-54.27349518118198L-14.922251822197866,-31.659538855689487A35,35,0,0,0,-26.654665260102025,-22.68322772164293Z" style="fill: #00ADD8; stroke-width: 2px;" stroke="#3f3f3f"></path></g><g class="arc"><path d="M-25.581003123767772,-54.27349518118198A60,60,0,0,1,-3.4329632894326263,-59.90170918307263L-2.0025619188356987,-34.9426636901257A35,35,0,0,0,-14.922251822197866,-31.659538855689487Z" style="fill: #844FBA; stroke-width: 2px;" stroke="#3f3f3f"></path></g><g class="arc"><path d="M-3.4329632894326263,-59.90170918307263A60,60,0,0,1,-1.1021821192326178e-14,-60L-6.429395695523604e-15,-35A35,35,0,0,0,-2.0025619188356987,-34.9426636901257Z" style="fill: #89e051; stroke-width: 2px;" stroke="#3f3f3f"></path></g></g></g></svg>