<svg xmlns="http://www.w3.org/2000/svg" width="340" height="200" viewBox="0 0 340 200"><style>* {
          font-family: 'Segoe UI', Ubuntu, "Helvetica Neue", Sans-Serif
        }</style><rect x="1" y="1" rx="5" ry="5" height="99%" width="99.41176470588235%" stroke="#000000" stroke-width="1" fill="#252334" stroke-opacity="0"></rect><text x="30" y="40" style="font-size: 22px; fill: #ff7372;">Top Languages by Commit</text><g transform="translate(0,40)"><g transform="translate(40,0)"><rect y="18" width="14" height="14" fill="#3572A5" stroke="#252334" style="stroke-width: 1px;"></rect><rect y="43.2" width="14" height="14" fill="#00ADD8" stroke="#252334" style="stroke-width: 1px;"></rect><rect y="68.4" width="14" height="14" fill="#844FBA" stroke="#252334" style="stroke-width: 1px;"></rect><rect y="93.60000000000002" width="14" height="14" fill="#7e7eff" stroke="#252334" style="stroke-width: 1px;"></rect><rect y="118.80000000000001" width="14" height="14" fill="#89e051" stroke="#252334" style="stroke-width: 1px;"></rect><text x="16.8" y="30" style="fill: #dbdbdb; font-size: 14px;">Python</text><text x="16.8" y="55.2" style="fill: #dbdbdb; font-size: 14px;">Go</text><text x="16.8" y="80.4" style="fill: #dbdbdb; font-size: 14px;">HCL</text><text x="16.8" y="105.60000000000002" style="fill: #dbdbdb; font-size: 14px;">Nix</text><text x="16.8" y="130.8" style="fill: #dbdbdb; font-size: 14px;">Shell</text></g><g transform="translate( 230, 80 )"><g class="arc"><path d="M3.67394039744206e-15,-60A60,60,0,1,1,-55.04705426972542,-23.870940832441118L-32.11078165733983,-13.924715485590651A35,35,0,1,0,2.1431318985078682e-15,-35Z" style="fill: #3572A5; stroke-width: 2px;" stroke="#252334"></path></g><g class="arc"><path d="M-55.04705426972542,-23.870940832441118A60,60,0,0,1,-36.7339853412888,-47.440639971926814L-21.4281581157518,-27.67370665029064A35,35,0,0,0,-32.11078165733983,-13.924715485590651Z" style="fill: #00ADD8; stroke-width: 2px;" stroke="#252334"></path></g><g class="arc"><path d="M-36.7339853412888,-47.440639971926814A60,60,0,0,1,-17.48263706390262,-57.396492935473496L-10.198204953943193,-33.48128754569287A35,35,0,0,0,-21.4281581157518,-27.67370665029064Z" style="fill: #844FBA; stroke-width: 2px;" stroke="#252334"></path></g><g class="arc"><path d="M-17.48263706390262,-57.396492935473496A60,60,0,0,1,-3.2540538467058786,-59.9116944641256L-1.898198077245096,-34.9484884374066A35,35,0,0,0,-10.198204953943193,-33.48128754569287Z" style="fill: #7e7eff; stroke-width: 2px;" stroke="#252334"></path></g><g class="arc"><path d="M-3.2540538467058786,-59.9116944641256A60,60,0,0,1,-1.1021821192326178e-14,-60L-6.429395695523604e-15,-35A35,35,0,0,0,-1.898198077245096,-34.9484884374066Z" style="fill: #89e051; stroke-width: 2px;" stroke="#252334"></path></g></g></g></svg>