<svg xmlns="http://www.w3.org/2000/svg" width="340" height="200" viewBox="0 0 340 200"><style>* {
          font-family: 'Segoe UI', Ubuntu, "Helvetica Neue", Sans-Serif
        }</style><rect x="1" y="1" rx="5" ry="5" height="99%" width="99.41176470588235%" stroke="#000000" stroke-width="1" fill="#292d3e" stroke-opacity="0"></rect><text x="30" y="40" style="font-size: 22px; fill: #c792ea;">Top Languages by Commit</text><g transform="translate(0,40)"><g transform="translate(40,0)"><rect y="18" width="14" height="14" fill="#89e051" stroke="#292d3e" style="stroke-width: 1px;"></rect><rect y="43.2" width="14" height="14" fill="#3572A5" stroke="#292d3e" style="stroke-width: 1px;"></rect><rect y="68.4" width="14" height="14" fill="#844FBA" stroke="#292d3e" style="stroke-width: 1px;"></rect><rect y="93.60000000000002" width="14" height="14" fill="#00ADD8" stroke="#292d3e" style="stroke-width: 1px;"></rect><rect y="118.80000000000001" width="14" height="14" fill="#7e7eff" stroke="#292d3e" style="stroke-width: 1px;"></rect><text x="16.8" y="30" style="fill: #a6accd; font-size: 14px;">Shell</text><text x="16.8" y="55.2" style="fill: #a6accd; font-size: 14px;">Python</text><text x="16.8" y="80.4" style="fill: #a6accd; font-size: 14px;">HCL</text><text x="16.8" y="105.60000000000002" style="fill: #a6accd; font-size: 14px;">Go</text><text x="16.8" y="130.8" style="fill: #a6accd; font-size: 14px;">Nix</text></g><g transform="translate( 230, 80 )"><g class="arc"><path d="M3.67394039744206e-15,-60A60,60,0,1,1,-36.891732441715995,47.318073475669316L-21.52017725766766,27.602209527473764A35,35,0,1,0,2.1431318985078682e-15,-35Z" style="fill: #89e051; stroke-width: 2px;" stroke="#292d3e"></path></g><g class="arc"><path d="M-36.891732441715995,47.318073475669316A60,60,0,0,1,-49.53232686266668,-33.86072349448471L-28.893857336555563,-19.75208870511608A35,35,0,0,0,-21.52017725766766,27.602209527473764Z" style="fill: #3572A5; stroke-width: 2px;" stroke="#292d3e"></path></g><g class="arc"><path d="M-49.53232686266668,-33.86072349448471A60,60,0,0,1,-31.032545344309458,-51.35154456735822L-18.10231811751385,-29.955067664292294A35,35,0,0,0,-28.893857336555563,-19.75208870511608Z" style="fill: #844FBA; stroke-width: 2px;" stroke="#292d3e"></path></g><g class="arc"><path d="M-31.032545344309458,-51.35154456735822A60,60,0,0,1,-15.239346104856837,-58.032424818340864L-8.889618561166488,-33.852247810698834A35,35,0,0,0,-18.10231811751385,-29.955067664292294Z" style="fill: #00ADD8; stroke-width: 2px;" stroke="#292d3e"></path></g><g class="arc"><path d="M-15.239346104856837,-58.032424818340864A60,60,0,0,1,-6.431252637433369e-14,-60L-3.7515640385027985e-14,-35A35,35,0,0,0,-8.889618561166488,-33.852247810698834Z" style="fill: #7e7eff; stroke-width: 2px;" stroke="#292d3e"></path></g></g></g></svg>