<svg xmlns="http://www.w3.org/2000/svg" width="340" height="200" viewBox="0 0 340 200"><style>* {
          font-family: 'Segoe UI', Ubuntu, "Helvetica Neue", Sans-Serif
        }</style><rect x="1" y="1" rx="5" ry="5" height="99%" width="99.41176470588235%" stroke="#000000" stroke-width="1" fill="#f5e1c0" stroke-opacity="0"></rect><text x="30" y="40" style="font-size: 22px; fill: #86092c;">Top Languages by Commit</text><g transform="translate(0,40)"><g transform="translate(40,0)"><rect y="18" width="14" height="14" fill="#3572A5" stroke="#f5e1c0" style="stroke-width: 1px;"></rect><rect y="43.2" width="14" height="14" fill="#844FBA" stroke="#f5e1c0" style="stroke-width: 1px;"></rect><rect y="68.4" width="14" height="14" fill="#7e7eff" stroke="#f5e1c0" style="stroke-width: 1px;"></rect><rect y="93.60000000000002" width="14" height="14" fill="#DA5B0B" stroke="#f5e1c0" style="stroke-width: 1px;"></rect><rect y="118.80000000000001" width="14" height="14" fill="#3178c6" stroke="#f5e1c0" style="stroke-width: 1px;"></rect><text x="16.8" y="30" style="fill: #574038; font-size: 14px;">Python</text><text x="16.8" y="55.2" style="fill: #574038; font-size: 14px;">HCL</text><text x="16.8" y="80.4" style="fill: #574038; font-size: 14px;">Nix</text><text x="16.8" y="105.60000000000002" style="fill: #574038; font-size: 14px;">Jupyter Notebook</text><text x="16.8" y="130.8" style="fill: #574038; font-size: 14px;">TypeScript</text></g><g transform="translate( 230, 80 )"><g class="arc"><path d="M3.67394039744206e-15,-60A60,60,0,1,1,-44.51337590536449,-40.2313231886265L-25.96613594479595,-23.468271860032125A35,35,0,1,0,2.1431318985078682e-15,-35Z" style="fill: #3572A5; stroke-width: 2px;" stroke="#f5e1c0"></path></g><g class="arc"><path d="M-44.51337590536449,-40.2313231886265A60,60,0,0,1,-20.609230785997074,-56.34944193520918L-12.022051291831627,-32.870507795538686A35,35,0,0,0,-25.96613594479595,-23.468271860032125Z" style="fill: #844FBA; stroke-width: 2px;" stroke="#f5e1c0"></path></g><g class="arc"><path d="M-20.609230785997074,-56.34944193520918A60,60,0,0,1,-6.025942152891078,-59.69663324819927L-3.5151329225197956,-34.82303606144958A35,35,0,0,0,-12.022051291831627,-32.870507795538686Z" style="fill: #7e7eff; stroke-width: 2px;" stroke="#f5e1c0"></path></g><g class="arc"><path d="M-6.025942152891078,-59.69663324819927A60,60,0,0,1,-2.839465491814157,-59.932774303554446L-1.656354870224925,-34.96078501040676A35,35,0,0,0,-3.5151329225197956,-34.82303606144958Z" style="fill: #DA5B0B; stroke-width: 2px;" stroke="#f5e1c0"></path></g><g class="arc"><path d="M-2.839465491814157,-59.932774303554446A60,60,0,0,1,-6.431252637433369e-14,-60L-3.7515640385027985e-14,-35A35,35,0,0,0,-1.656354870224925,-34.96078501040676Z" style="fill: #3178c6; stroke-width: 2px;" stroke="#f5e1c0"></path></g></g></g></svg>