<?xml version="1.0" encoding="UTF-8" standalone="no"?>
<!-- Created with Inkscape (http://www.inkscape.org/) -->

<svg
   version="1.1"
   id="svg1"
   width="1344"
   height="864"
   viewBox="0 0 1344 864"
   xmlns="http://www.w3.org/2000/svg"
   xmlns:svg="http://www.w3.org/2000/svg">
  <defs
     id="defs1">
    <clipPath
       clipPathUnits="userSpaceOnUse"
       id="clipPath2">
      <path
         d="M 0,0 H 4200 V 2700 H 0 Z"
         transform="scale(0.31999999)"
         clip-rule="evenodd"
         id="path2" />
    </clipPath>
    <clipPath
       clipPathUnits="userSpaceOnUse"
       id="clipPath3">
      <path
         d="M 0,0 H 4200 V 2700 H 0 Z"
         transform="matrix(0.33333333,0,0,0.33333333,-420.82813,-65)"
         clip-rule="evenodd"
         id="path3" />
    </clipPath>
    <clipPath
       clipPathUnits="userSpaceOnUse"
       id="clipPath5">
      <path
         d="M 0,0 H 4200 V 2700 H 0 Z"
         transform="matrix(0.33333333,0,0,0.33333333,-0.5,-0.5)"
         clip-rule="evenodd"
         id="path5" />
    </clipPath>
    <clipPath
       clipPathUnits="userSpaceOnUse"
       id="clipPath6">
      <path
         d="M 0,0 H 4200 V 2700 H 0 Z"
         transform="matrix(0.33333333,0,0,0.33333333,-220,-221)"
         clip-rule="evenodd"
         id="path6" />
    </clipPath>
    <clipPath
       clipPathUnits="userSpaceOnUse"
       id="clipPath7">
      <path
         d="M 0,0 H 4200 V 2700 H 0 Z"
         transform="matrix(0.33333333,0,0,0.33333333,-222.5625,-255)"
         clip-rule="evenodd"
         id="path7" />
    </clipPath>
    <clipPath
       clipPathUnits="userSpaceOnUse"
       id="clipPath8">
      <path
         d="M 0,0 H 4200 V 2700 H 0 Z"
         transform="matrix(0.33333333,0,0,0.33333333,-205,-285)"
         clip-rule="evenodd"
         id="path8" />
    </clipPath>
    <clipPath
       clipPathUnits="userSpaceOnUse"
       id="clipPath10">
      <path
         d="M 0,0 H 4200 V 2700 H 0 Z"
         transform="matrix(0.33333333,0,0,0.33333333,-0.5,-0.5)"
         clip-rule="evenodd"
         id="path10" />
    </clipPath>
    <clipPath
       clipPathUnits="userSpaceOnUse"
       id="clipPath11">
      <path
         d="M 0,0 H 4200 V 2700 H 0 Z"
         transform="matrix(0.33333333,0,0,0.33333333,-670,-221)"
         clip-rule="evenodd"
         id="path11" />
    </clipPath>
    <clipPath
       clipPathUnits="userSpaceOnUse"
       id="clipPath12">
      <path
         d="M 0,0 H 4200 V 2700 H 0 Z"
         transform="matrix(0.33333333,0,0,0.33333333,-672.5625,-255)"
         clip-rule="evenodd"
         id="path12" />
    </clipPath>
    <clipPath
       clipPathUnits="userSpaceOnUse"
       id="clipPath13">
      <path
         d="M 0,0 H 4200 V 2700 H 0 Z"
         transform="matrix(0.33333333,0,0,0.33333333,-627.99999,-285)"
         clip-rule="evenodd"
         id="path13" />
    </clipPath>
    <clipPath
       clipPathUnits="userSpaceOnUse"
       id="clipPath15">
      <path
         d="M 0,0 H 4200 V 2700 H 0 Z"
         transform="matrix(0.33333333,0,0,0.33333333,-0.5,-0.5)"
         clip-rule="evenodd"
         id="path15" />
    </clipPath>
    <clipPath
       clipPathUnits="userSpaceOnUse"
       id="clipPath16">
      <path
         d="M 0,0 H 4200 V 2700 H 0 Z"
         transform="matrix(0.33333333,0,0,0.33333333,-1120,-221)"
         clip-rule="evenodd"
         id="path16" />
    </clipPath>
    <clipPath
       clipPathUnits="userSpaceOnUse"
       id="clipPath17">
      <path
         d="M 0,0 H 4200 V 2700 H 0 Z"
         transform="matrix(0.33333333,0,0,0.33333333,-1122.5625,-255)"
         clip-rule="evenodd"
         id="path17" />
    </clipPath>
    <clipPath
       clipPathUnits="userSpaceOnUse"
       id="clipPath18">
      <path
         d="M 0,0 H 4200 V 2700 H 0 Z"
         transform="matrix(0.33333333,0,0,0.33333333,-1078,-285)"
         clip-rule="evenodd"
         id="path18" />
    </clipPath>
    <clipPath
       clipPathUnits="userSpaceOnUse"
       id="clipPath20">
      <path
         d="M 0,0 H 4200 V 2700 H 0 Z"
         transform="matrix(0.33333333,0,0,0.33333333,-0.5,-0.5)"
         clip-rule="evenodd"
         id="path20" />
    </clipPath>
    <clipPath
       clipPathUnits="userSpaceOnUse"
       id="clipPath22">
      <path
         d="M 0,0 H 4200 V 2700 H 0 Z"
         transform="matrix(0.33333333,0,0,0.33333333,-0.5,-0.5)"
         clip-rule="evenodd"
         id="path22" />
    </clipPath>
    <clipPath
       clipPathUnits="userSpaceOnUse"
       id="clipPath24">
      <path
         d="M 0,0 H 4200 V 2700 H 0 Z"
         transform="matrix(0.33333333,0,0,0.33333333,-0.5,-0.5)"
         clip-rule="evenodd"
         id="path24" />
    </clipPath>
    <clipPath
       clipPathUnits="userSpaceOnUse"
       id="clipPath25">
      <path
         d="M 0,0 H 4200 V 2700 H 0 Z"
         transform="matrix(0.33333333,0,0,0.33333333,-646,-532)"
         clip-rule="evenodd"
         id="path25" />
    </clipPath>
    <clipPath
       clipPathUnits="userSpaceOnUse"
       id="clipPath27">
      <path
         d="M 0,0 H 4200 V 2700 H 0 Z"
         transform="matrix(0.33333333,0,0,0.33333333,-0.5,-0.5)"
         clip-rule="evenodd"
         id="path27" />
    </clipPath>
    <clipPath
       clipPathUnits="userSpaceOnUse"
       id="clipPath28">
      <path
         d="M 0,0 H 4200 V 2700 H 0 Z"
         transform="matrix(0.33333333,0,0,0.33333333,-220,-521)"
         clip-rule="evenodd"
         id="path28" />
    </clipPath>
    <clipPath
       clipPathUnits="userSpaceOnUse"
       id="clipPath29">
      <path
         d="M 0,0 H 4200 V 2700 H 0 Z"
         transform="matrix(0.33333333,0,0,0.33333333,-186,-555)"
         clip-rule="evenodd"
         id="path29" />
    </clipPath>
    <clipPath
       clipPathUnits="userSpaceOnUse"
       id="clipPath30">
      <path
         d="M 0,0 H 4200 V 2700 H 0 Z"
         transform="matrix(0.33333333,0,0,0.33333333,-194,-575)"
         clip-rule="evenodd"
         id="path30" />
    </clipPath>
    <clipPath
       clipPathUnits="userSpaceOnUse"
       id="clipPath32">
      <path
         d="M 0,0 H 4200 V 2700 H 0 Z"
         transform="matrix(0.33333333,0,0,0.33333333,-0.5,-0.5)"
         clip-rule="evenodd"
         id="path32" />
    </clipPath>
    <clipPath
       clipPathUnits="userSpaceOnUse"
       id="clipPath33">
      <path
         d="M 0,0 H 4200 V 2700 H 0 Z"
         transform="matrix(0.33333333,0,0,0.33333333,-1120,-521)"
         clip-rule="evenodd"
         id="path33" />
    </clipPath>
    <clipPath
       clipPathUnits="userSpaceOnUse"
       id="clipPath34">
      <path
         d="M 0,0 H 4200 V 2700 H 0 Z"
         transform="matrix(0.33333333,0,0,0.33333333,-1094,-555)"
         clip-rule="evenodd"
         id="path34" />
    </clipPath>
    <clipPath
       clipPathUnits="userSpaceOnUse"
       id="clipPath35">
      <path
         d="M 0,0 H 4200 V 2700 H 0 Z"
         transform="matrix(0.33333333,0,0,0.33333333,-1102,-575)"
         clip-rule="evenodd"
         id="path35" />
    </clipPath>
    <clipPath
       clipPathUnits="userSpaceOnUse"
       id="clipPath37">
      <path
         d="M 0,0 H 4200 V 2700 H 0 Z"
         transform="matrix(0.33333333,0,0,0.33333333,-0.5,-0.5)"
         clip-rule="evenodd"
         id="path37" />
    </clipPath>
    <clipPath
       clipPathUnits="userSpaceOnUse"
       id="clipPath39">
      <path
         d="M 0,0 H 4200 V 2700 H 0 Z"
         transform="matrix(0.33333333,0,0,0.33333333,-0.5,-0.5)"
         clip-rule="evenodd"
         id="path39" />
    </clipPath>
    <clipPath
       clipPathUnits="userSpaceOnUse"
       id="clipPath41">
      <path
         d="M 0,0 H 4200 V 2700 H 0 Z"
         transform="matrix(0.33333333,0,0,0.33333333,-0.5,-0.5)"
         clip-rule="evenodd"
         id="path41" />
    </clipPath>
    <clipPath
       clipPathUnits="userSpaceOnUse"
       id="clipPath43">
      <path
         d="M 0,0 H 4200 V 2700 H 0 Z"
         transform="matrix(0.33333333,0,0,0.33333333,-0.5,-0.5)"
         clip-rule="evenodd"
         id="path43" />
    </clipPath>
    <clipPath
       clipPathUnits="userSpaceOnUse"
       id="clipPath45">
      <path
         d="M 0,0 H 4200 V 2700 H 0 Z"
         transform="scale(0.33333333)"
         clip-rule="evenodd"
         id="path45" />
    </clipPath>
    <clipPath
       clipPathUnits="userSpaceOnUse"
       id="clipPath46">
      <path
         d="M 0,0 H 4200 V 2700 H 0 Z"
         transform="matrix(0.33333333,0,0,0.33333333,-486.5,-530)"
         clip-rule="evenodd"
         id="path46" />
    </clipPath>
    <clipPath
       clipPathUnits="userSpaceOnUse"
       id="clipPath48">
      <path
         d="M 0,0 H 4200 V 2700 H 0 Z"
         transform="matrix(0.33333333,0,0,0.33333333,-0.5,-0.5)"
         clip-rule="evenodd"
         id="path48" />
    </clipPath>
    <clipPath
       clipPathUnits="userSpaceOnUse"
       id="clipPath50">
      <path
         d="M 0,0 H 4200 V 2700 H 0 Z"
         transform="matrix(0.33333333,0,0,0.33333333,-0.5,-0.5)"
         clip-rule="evenodd"
         id="path50" />
    </clipPath>
    <clipPath
       clipPathUnits="userSpaceOnUse"
       id="clipPath52">
      <path
         d="M 0,0 H 4200 V 2700 H 0 Z"
         transform="scale(0.33333333)"
         clip-rule="evenodd"
         id="path52" />
    </clipPath>
    <clipPath
       clipPathUnits="userSpaceOnUse"
       id="clipPath53">
      <path
         d="M 0,0 H 4200 V 2700 H 0 Z"
         transform="matrix(0.33333333,0,0,0.33333333,-890,-530)"
         clip-rule="evenodd"
         id="path53" />
    </clipPath>
    <clipPath
       clipPathUnits="userSpaceOnUse"
       id="clipPath55">
      <path
         d="M 0,0 H 4200 V 2700 H 0 Z"
         transform="matrix(0.33333333,0,0,0.33333333,-0.5,-0.5)"
         clip-rule="evenodd"
         id="path55" />
    </clipPath>
    <clipPath
       clipPathUnits="userSpaceOnUse"
       id="clipPath57">
      <path
         d="M 0,0 H 4200 V 2700 H 0 Z"
         transform="matrix(0.33333333,0,0,0.33333333,-0.5,-0.5)"
         clip-rule="evenodd"
         id="path57" />
    </clipPath>
    <clipPath
       clipPathUnits="userSpaceOnUse"
       id="clipPath59">
      <path
         d="M 0,0 H 4200 V 2700 H 0 Z"
         transform="scale(0.33333333)"
         clip-rule="evenodd"
         id="path59" />
    </clipPath>
    <clipPath
       clipPathUnits="userSpaceOnUse"
       id="clipPath60">
      <path
         d="M 0,0 H 4200 V 2700 H 0 Z"
         transform="matrix(0.33333333,0,0,0.33333333,-229.5,-379.99999)"
         clip-rule="evenodd"
         id="path60" />
    </clipPath>
    <clipPath
       clipPathUnits="userSpaceOnUse"
       id="clipPath62">
      <path
         d="M 0,0 H 4200 V 2700 H 0 Z"
         transform="matrix(0.33333333,0,0,0.33333333,-0.5,-0.5)"
         clip-rule="evenodd"
         id="path62" />
    </clipPath>
    <clipPath
       clipPathUnits="userSpaceOnUse"
       id="clipPath63">
      <path
         d="M 0,0 H 4200 V 2700 H 0 Z"
         transform="matrix(0.33333333,0,0,0.33333333,-400.5,-747)"
         clip-rule="evenodd"
         id="path63" />
    </clipPath>
  </defs>
  <g
     id="g1">
    <path
       id="path1"
       d="M 0,0 H 1344 V 864 H 0 Z"
       style="fill:#ffffff;fill-opacity:1;fill-rule:nonzero;stroke:none"
       clip-path="url(#clipPath2)" />
    <g
       id="g2" />
    <path
       style="font-weight:600;font-size:1e-32px;fill:#00aa00"
       d="m 0,0 c 0,0 0,0 0,0 l 0,0 v 0 c 0,0 0,0 0,0 h 0 c 0,0 0,0 0,0 v 0 l 0,0 c 0,0 0,0 0,0 0,0 0,0 0,0 l 0,0 c 0,0 0,0 0,0 l 0,0 v 0 c 0,0 0,0 0,0 0,0 0,0 0,0 0,0 0,0 0,0 0,0 0,0 0,0 0,0 0,0 0,0 l 0,0 c 0,0 0,0 0,0 0,0 0,0 0,0 0,0 0,0 0,0 v 0 c 0,0 0,0 0,0 0,0 0,0 0,0 0,0 0,0 0,0 0,0 0,0 0,0 0,0 0,0 0,0 0,0 0,0 0,0 0,0 0,0 0,0 z m 0,0 c 0,0 0,0 0,0 0,0 0,0 0,0 0,0 0,0 0,0 0,0 0,0 0,0 0,0 0,0 0,0 0,0 0,0 0,0 0,0 0,0 0,0 z m 0,0 c 0,0 0,0 0,0 v 0 l 0,0 c 0,0 0,0 0,0 l 0,0 c 0,0 0,0 0,0 0,0 0,0 0,0 0,0 0,0 0,0 0,0 0,0 0,0 0,0 0,0 0,0 0,0 0,0 0,0 l 0,0 c 0,0 0,0 0,0 z m 0,0 v 0 h 0 c 0,0 0,0 0,0 v 0 c 0,0 0,0 0,0 h 0 v 0 c 0,0 0,0 0,0 h 0 c 0,0 0,0 0,0 v 0 h 0 c 0,0 0,0 0,0 v 0 c 0,0 0,0 0,0 h 0 v 0 h 0 c 0,0 0,0 0,0 0,0 0,0 0,0 v 0 c 0,0 0,0 0,0 0,0 0,0 0,0 0,0 0,0 0,0 l 0,0 c 0,0 0,0 0,0 h 0 l 0,0 c 0,0 0,0 0,0 l 0,0 c 0,0 0,0 0,0 0,0 0,0 0,0 0,0 0,0 0,0 v 0 c 0,0 0,0 0,0 0,0 0,0 0,0 z m 0,0 v 0 h 0 v 0 z m 0,0 h 0 v 0 h 0 z m 0,0 v 0 h 0 v 0 z m 0,0 h 0 v 0 h 0 z m 0,0 c 0,0 0,0 0,0 l 0,0 c 0,0 0,0 0,0 z m 0,0 h 0 c 0,0 0,0 0,0 v 0 c 0,0 0,0 0,0 h 0 c 0,0 0,0 0,0 v 0 c 0,0 0,0 0,0 h 0 v 0 c 0,0 0,0 0,0 h 0 c 0,0 0,0 0,0 z m 0,0 c 0,0 0,0 0,0 v 0 c 0,0 0,0 0,0 h 0 c 0,0 0,0 0,0 v 0 c 0,0 0,0 0,0 h 0 c 0,0 0,0 0,0 0,0 0,0 0,0 l 0,0 c 0,0 0,0 0,0 z m 0,0 c 0,0 0,0 0,0 h 0 c 0,0 0,0 0,0 v 0 c 0,0 0,0 0,0 l 0,0 c 0,0 0,0 0,0 0,0 0,0 0,0 0,0 0,0 0,0 0,0 0,0 0,0 0,0 0,0 0,0 z m 0,0 c 0,0 0,0 0,0 l 0,0 c 0,0 0,0 0,0 z m 0,0 c 0,0 0,0 0,0 h 0 c 0,0 0,0 0,0 v 0 c 0,0 0,0 0,0 h 0 c 0,0 0,0 0,0 h 0 c 0,0 0,0 0,0 v 0 c 0,0 0,0 0,0 h 0 c 0,0 0,0 0,0 0,0 0,0 0,0 0,0 0,0 0,0 0,0 0,0 0,0 0,0 0,0 0,0 0,0 0,0 0,0 0,0 0,0 0,0 0,0 0,0 0,0 0,0 0,0 0,0 0,0 0,0 0,0 0,0 0,0 0,0 h 0 c 0,0 0,0 0,0 v 0 c 0,0 0,0 0,0 h 0 c 0,0 0,0 0,0 h 0 c 0,0 0,0 0,0 v 0 c 0,0 0,0 0,0 h 0 c 0,0 0,0 0,0 h 0 c 0,0 0,0 0,0 v 0 h 0 c 0,0 0,0 0,0 v 0 c 0,0 0,0 0,0 0,0 0,0 0,0 h 0 v 0 c 0,0 0,0 0,0 h 0 c 0,0 0,0 0,0 v 0 h 0 c 0,0 0,0 0,0 0,0 0,0 0,0 v 0 c 0,0 0,0 0,0 h 0 v 0 c 0,0 0,0 0,0 z m 0,0 c 0,0 0,0 0,0 v 0 h 0 v 0 c 0,0 0,0 0,0 h 0 c 0,0 0,0 0,0 h 0 c 0,0 0,0 0,0 z m 0,0 v 0 c 0,0 0,0 0,0 0,0 0,0 0,0 0,0 0,0 0,0 0,0 0,0 0,0 0,0 0,0 0,0 v 0 h 0 c 0,0 0,0 0,0 v 0 c 0,0 0,0 0,0 h 0 c 0,0 0,0 0,0 v 0 c 0,0 0,0 0,0 z m 0,0 c 0,0 0,0 0,0 0,0 0,0 0,0 0,0 0,0 0,0 0,0 0,0 0,0 0,0 0,0 0,0 z m 0,0 c 0,0 0,0 0,0 h 0 c 0,0 0,0 0,0 v 0 c 0,0 0,0 0,0 h 0 c 0,0 0,0 0,0 z m 0,0 c 0,0 0,0 0,0 h 0 c 0,0 0,0 0,0 v 0 c 0,0 0,0 0,0 0,0 0,0 0,0 l 0,0 c 0,0 0,0 0,0 0,0 0,0 0,0 0,0 0,0 0,0 0,0 0,0 0,0 z m 0,0 c 0,0 0,0 0,0 0,0 0,0 0,0 0,0 0,0 0,0 0,0 0,0 0,0 0,0 0,0 0,0 0,0 0,0 0,0 0,0 0,0 0,0 l 0,0 c 0,0 0,0 0,0 0,0 0,0 0,0 0,0 0,0 0,0 0,0 0,0 0,0 0,0 0,0 0,0 0,0 0,0 0,0 l 0,0 c 0,0 0,0 0,0 0,0 0,0 0,0 0,0 0,0 0,0 0,0 0,0 0,0 z m 0,0 c 0,0 0,0 0,0 l 0,0 c 0,0 0,0 0,0 z m 0,0 c 0,0 0,0 0,0 l 0,0 c 0,0 0,0 0,0 z m 0,0 c 0,0 0,0 0,0 l 0,0 c 0,0 0,0 0,0 0,0 0,0 0,0 v 0 h 0 c 0,0 0,0 0,0 0,0 0,0 0,0 v 0 c 0,0 0,0 0,0 0,0 0,0 0,0 h 0 c 0,0 0,0 0,0 0,0 0,0 0,0 v 0 c 0,0 0,0 0,0 l 0,0 c 0,0 0,0 0,0 0,0 0,0 0,0 0,0 0,0 0,0 z m 0,0 v 0 h 0 v 0 z m 0,0 h 0 v 0 h 0 z m 0,0 c 0,0 0,0 0,0 0,0 0,0 0,0 h 0 c 0,0 0,0 0,0 0,0 0,0 0,0 v 0 c 0,0 0,0 0,0 h 0 c 0,0 0,0 0,0 v 0 h 0 v 0 c 0,0 0,0 0,0 0,0 0,0 0,0 0,0 0,0 0,0 0,0 0,0 0,0 0,0 0,0 0,0 z m 0,0 h 0 c 0,0 0,0 0,0 v 0 c 0,0 0,0 0,0 h 0 v 0 h 0 c 0,0 0,0 0,0 v 0 c 0,0 0,0 0,0 h 0 c 0,0 0,0 0,0 v 0 c 0,0 0,0 0,0 h 0 v 0 h 0 c 0,0 0,0 0,0 v 0 c 0,0 0,0 0,0 h 0 v 0 c 0,0 0,0 0,0 0,0 0,0 0,0 0,0 0,0 0,0 0,0 0,0 0,0 0,0 0,0 0,0 0,0 0,0 0,0 0,0 0,0 0,0 l 0,0 c 0,0 0,0 0,0 0,0 0,0 0,0 v 0 c 0,0 0,0 0,0 h 0 c 0,0 0,0 0,0 v 0 c 0,0 0,0 0,0 0,0 0,0 0,0 l 0,0 c 0,0 0,0 0,0 0,0 0,0 0,0 0,0 0,0 0,0 h 0 c 0,0 0,0 0,0 v 0 c 0,0 0,0 0,0 h 0 v 0 c 0,0 0,0 0,0 h 0 c 0,0 0,0 0,0 v 0 h 0 c 0,0 0,0 0,0 0,0 0,0 0,0 0,0 0,0 0,0 0,0 0,0 0,0 0,0 0,0 0,0 0,0 0,0 0,0 0,0 0,0 0,0 0,0 0,0 0,0 0,0 0,0 0,0 0,0 0,0 0,0 0,0 0,0 0,0 z m 0,0 c 0,0 0,0 0,0 0,0 0,0 0,0 l 0,0 c 0,0 0,0 0,0 0,0 0,0 0,0 0,0 0,0 0,0 0,0 0,0 0,0 l 0,0 c 0,0 0,0 0,0 0,0 0,0 0,0 0,0 0,0 0,0 0,0 0,0 0,0 z m 0,0 c 0,0 0,0 0,0 0,0 0,0 0,0 0,0 0,0 0,0 l 0,0 c 0,0 0,0 0,0 0,0 0,0 0,0 z m 0,0 c 0,0 0,0 0,0 0,0 0,0 0,0 0,0 0,0 0,0 0,0 0,0 0,0 0,0 0,0 0,0 l 0,0 c 0,0 0,0 0,0 0,0 0,0 0,0 0,0 0,0 0,0 z m 0,0 c 0,0 0,0 0,0 h 0 c 0,0 0,0 0,0 v 0 c 0,0 0,0 0,0 h 0 c 0,0 0,0 0,0 z m 0,0 c 0,0 0,0 0,0 v 0 c 0,0 0,0 0,0 h 0 c 0,0 0,0 0,0 v 0 c 0,0 0,0 0,0 h 0 c 0,0 0,0 0,0 0,0 0,0 0,0 0,0 0,0 0,0 z m 0,0 c 0,0 0,0 0,0 l 0,0 c 0,0 0,0 0,0 z m 0,0 c 0,0 0,0 0,0 l 0,0 c 0,0 0,0 0,0 z m -1.6800054,0 c 0,0 0,0 0,0 0,0 0,0 0,0 0,0 0,0 0,0 0,0 0,0 0,0 0,0 0,0 0,0 0,0 0,0 0,0 v 0 0 0 c 0,0 0,0 0,0 z m 0,0 c 0,0 0,0 0,0 0,0 0,0 0,0 0,0 0,0 0,0 0,0 0,0 0,0 0,0 0,0 0,0 z m 0,0 c 0,0 0,0 0,0 v 0 c 0,0 0,0 0,0 z m 0,0 c 0,0 0,0 0,0 v 0 c 0,0 0,0 0,0 z m 0,0 c 0,0 0,0 0,0 v 0 c 0,0 0,0 0,0 z m 0,0 c 0,0 0,0 0,0 v 0 c 0,0 0,0 0,0 z m 0,0 c 0,0 0,0 0,0 0,0 0,0 0,0 0,0 0,0 0,0 0,0 0,0 0,0 0,0 0,0 0,0 0,0 0,0 0,0 0,0 0,0 0,0 z m 0,0 v 0 c 0,0 0,0 0,0 v 0 c 0,0 0,0 0,0 0,0 0,0 0,0 v 0 c 0,0 0,0 0,0 v 0 c 0,0 0,0 0,0 0,0 0,0 0,0 0,0 0,0 0,0 v 0 c 0,0 0,0 0,0 0,0 0,0 0,0 0,0 0,0 0,0 0,0 0,0 0,0 v 0 c 0,0 0,0 0,0 0,0 0,0 0,0 0,0 0,0 0,0 0,0 0,0 0,0 0,0 0,0 0,0 z m 0,0 c 0,0 0,0 0,0 v 0 c 0,0 0,0 0,0 z m 0,0 c 0,0 0,0 0,0 0,0 0,0 0,0 0,0 0,0 0,0 0,0 0,0 0,0 z m 0,0 c 0,0 0,0 0,0 v 0 c 0,0 0,0 0,0 v 0 c 0,0 0,0 0,0 0,0 0,0 0,0 v 0 c 0,0 0,0 0,0 v 0 c 0,0 0,0 0,0 v 0 c 0,0 0,0 0,0 v 0 c 0,0 0,0 0,0 0,0 0,0 0,0 0,0 0,0 0,0 0,0 0,0 0,0 0,0 0,0 0,0 0,0 0,0 0,0 0,0 0,0 0,0 0,0 0,0 0,0 0,0 0,0 0,0 0,0 0,0 0,0 0,0 0,0 0,0 z m 0,0 c 0,0 0,0 0,0 0,0 0,0 0,0 z m 0,0 c 0,0 0,0 0,0 v 0 c 0,0 0,0 0,0 v 0 c 0,0 0,0 0,0 0,0 0,0 0,0 v 0 c 0,0 0,0 0,0 0,0 0,0 0,0 0,0 0,0 0,0 0,0 0,0 0,0 z m 0,0 c 0,0 0,0 0,0 0,0 0,0 0,0 0,0 0,0 0,0 0,0 0,0 0,0 z m 0,0 c 0,0 0,0 0,0 0,0 0,0 0,0 0,0 0,0 0,0 z m 0,0 c 0,0 0,0 0,0 0,0 0,0 0,0 0,0 0,0 0,0 0,0 0,0 0,0 0,0 0,0 0,0 z m 0,0 v 0 0 c 0,0 0,0 0,0 v 0 c 0,0 0,0 0,0 v 0 0 c 0,0 0,0 0,0 v 0 c 0,0 0,0 0,0 v 0 c 0,0 0,0 0,0 v 0 c 0,0 0,0 0,0 v 0 0 0 c 0,0 0,0 0,0 v 0 c 0,0 0,0 0,0 v 0 0 0 c 0,0 0,0 0,0 v 0 c 0,0 0,0 0,0 v 0 c 0,0 0,0 0,0 v 0 c 0,0 0,0 0,0 v 0 z m 0,0 c 0,0 0,0 0,0 v 0 c 0,0 0,0 0,0 z m 0,0 c 0,0 0,0 0,0 v 0 c 0,0 0,0 0,0 0,0 0,0 0,0 0,0 0,0 0,0 v 0 c 0,0 0,0 0,0 v 0 c 0,0 0,0 0,0 0,0 0,0 0,0 v 0 c 0,0 0,0 0,0 0,0 0,0 0,0 0,0 0,0 0,0 0,0 0,0 0,0 0,0 0,0 0,0 0,0 0,0 0,0 0,0 0,0 0,0 0,0 0,0 0,0 0,0 0,0 0,0 0,0 0,0 0,0 0,0 0,0 0,0 0,0 0,0 0,0 0,0 0,0 0,0 0,0 0,0 0,0 0,0 0,0 0,0 0,0 0,0 0,0 z m 0,0 c 0,0 0,0 0,0 v 0 c 0,0 0,0 0,0 z m 0,0 c 0,0 0,0 0,0 v 0 c 0,0 0,0 0,0 z m 0,0 v 0 c 0,0 0,0 0,0 0,0 0,0 0,0 0,0 0,0 0,0 0,0 0,0 0,0 0,0 0,0 0,0 v 0 c 0,0 0,0 0,0 v 0 c 0,0 0,0 0,0 v 0 c 0,0 0,0 0,0 v 0 c 0,0 0,0 0,0 z m 0,0 c 0,0 0,0 0,0 0,0 0,0 0,0 v 0 c 0,0 0,0 0,0 0,0 0,0 0,0 v 0 c 0,0 0,0 0,0 v 0 0 0 c 0,0 0,0 0,0 0,0 0,0 0,0 0,0 0,0 0,0 0,0 0,0 0,0 z m 0,0 v 0 0 0 z m 0,0 c 0,0 0,0 0,0 0,0 0,0 0,0 0,0 0,0 0,0 v 0 c 0,0 0,0 0,0 v 0 c 0,0 0,0 0,0 0,0 0,0 0,0 0,0 0,0 0,0 0,0 0,0 0,0 v 0 c 0,0 0,0 0,0 0,0 0,0 0,0 0,0 0,0 0,0 0,0 0,0 0,0 z m 0,0 c 0,0 0,0 0,0 v 0 c 0,0 0,0 0,0 v 0 c 0,0 0,0 0,0 0,0 0,0 0,0 0,0 0,0 0,0 0,0 0,0 0,0 0,0 0,0 0,0 0,0 0,0 0,0 0,0 0,0 0,0 0,0 0,0 0,0 v 0 c 0,0 0,0 0,0 0,0 0,0 0,0 v 0 c 0,0 0,0 0,0 0,0 0,0 0,0 z m 0,0 c 0,0 0,0 0,0 v 0 c 0,0 0,0 0,0 v 0 c 0,0 0,0 0,0 0,0 0,0 0,0 0,0 0,0 0,0 0,0 0,0 0,0 0,0 0,0 0,0 0,0 0,0 0,0 0,0 0,0 0,0 0,0 0,0 0,0 0,0 0,0 0,0 v 0 c 0,0 0,0 0,0 0,0 0,0 0,0 v 0 c 0,0 0,0 0,0 z m 0,0 c 0,0 0,0 0,0 v 0 c 0,0 0,0 0,0 v 0 0 0 c 0,0 0,0 0,0 0,0 0,0 0,0 0,0 0,0 0,0 0,0 0,0 0,0 0,0 0,0 0,0 0,0 0,0 0,0 v 0 c 0,0 0,0 0,0 0,0 0,0 0,0 v 0 c 0,0 0,0 0,0 0,0 0,0 0,0 z m 0,0 v 0 0 0 z m 0,0 v 0 0 0 z"
       id="text2"
       clip-path="url(#clipPath3)"
       transform="matrix(0.95999996,0,0,0.95999996,403.99499,62.399997)"
       aria-label="セル単位実⾏で即座にデバッグ・修正が可能" />
    <path
       id="path4"
       d="m 122.5,150 h 255 c 0.73691,1e-5 1.47205,0.0361 2.20541,0.10835 0.73337,0.0722 1.4614,0.18022 2.18412,0.32398 0.72274,0.14377 1.4367,0.32261 2.14184,0.53653 0.70517,0.21389 1.39816,0.46185 2.07895,0.74385 0.68082,0.28199 1.34619,0.59669 1.99606,0.94406 0.64991,0.34736 1.28119,0.72575 1.89389,1.13515 0.61274,0.4094 1.20392,0.84787 1.77356,1.31535 0.56965,0.46748 1.11499,0.96175 1.63605,1.48282 0.52109,0.52107 1.01538,1.06643 1.48285,1.63606 0.4675,0.56963 0.90592,1.16078 1.31531,1.7735 0.40939,0.61272 0.78778,1.24402 1.13516,1.8939 0.34738,0.64989 0.66205,1.31525 0.94403,1.99605 0.28201,0.68082 0.53,1.37381 0.7439,2.079 0.2139,0.70517 0.39273,1.41913 0.53647,2.14186 0.1438,0.72275 0.25183,1.4508 0.32406,2.18416 C 399.9639,171.02798 400,171.76311 400,172.5 v 105 c 0,0.73691 -0.0361,1.47205 -0.10834,2.20538 -0.0722,0.73337 -0.18026,1.4614 -0.32403,2.18415 -0.14374,0.72274 -0.32257,1.4367 -0.53647,2.14187 -0.21393,0.70517 -0.46192,1.39817 -0.74393,2.07895 -0.28198,0.68082 -0.59665,1.34616 -0.94403,1.99603 -0.34738,0.64991 -0.72577,1.28122 -1.13516,1.89393 -0.40939,0.6127 -0.84781,1.20388 -1.31531,1.77355 -0.46747,0.56962 -0.96176,1.11496 -1.48285,1.63602 -0.52106,0.52106 -1.0664,1.01535 -1.63608,1.48285 -0.56961,0.46747 -1.16079,0.90588 -1.77353,1.31528 -0.6127,0.40942 -1.24398,0.78781 -1.89386,1.13519 -0.6499,0.34738 -1.31527,0.66205 -1.99609,0.94403 -0.68079,0.28201 -1.37378,0.52997 -2.07895,0.7439 -0.70517,0.2139 -1.41913,0.39273 -2.14187,0.5365 -0.72272,0.1438 -1.45075,0.2518 -2.18409,0.32403 C 378.97205,299.9639 378.23691,300 377.5,300 h -255 c -0.7369,0 -1.47202,-0.0361 -2.20538,-0.10834 -0.73336,-0.0722 -1.46141,-0.18023 -2.18416,-0.32403 -0.72274,-0.14377 -1.4367,-0.3226 -2.14186,-0.5365 -0.70518,-0.21393 -1.39817,-0.46189 -2.07899,-0.7439 -0.68081,-0.28198 -1.34615,-0.59665 -1.99604,-0.94403 -0.64989,-0.34738 -1.2812,-0.72577 -1.89391,-1.13519 -0.61271,-0.4094 -1.20388,-0.84781 -1.77352,-1.31528 -0.56963,-0.4675 -1.11498,-0.96179 -1.63605,-1.48285 -0.52107,-0.52106 -1.01535,-1.0664 -1.48284,-1.63602 -0.46748,-0.56967 -0.90593,-1.16085 -1.31533,-1.77355 -0.40941,-0.61271 -0.78778,-1.24402 -1.13516,-1.89393 -0.34737,-0.64987 -0.66206,-1.31521 -0.94407,-1.99603 -0.28199,-0.68078 -0.52995,-1.37378 -0.74386,-2.07895 -0.21391,-0.70517 -0.39275,-1.41913 -0.53651,-2.14187 -0.14376,-0.72275 -0.25175,-1.45078 -0.32398,-2.18415 C 100.03611,278.97205 100,278.23691 100,277.5 v -105 c 0,-0.73689 0.0361,-1.47202 0.10834,-2.20538 0.0722,-0.73336 0.18023,-1.46141 0.32399,-2.18416 0.14376,-0.72273 0.32259,-1.43669 0.5365,-2.14188 0.21391,-0.70517 0.46187,-1.39816 0.74386,-2.07898 0.28201,-0.6808 0.5967,-1.34616 0.94407,-1.99605 0.34738,-0.64988 0.72575,-1.28118 1.13516,-1.8939 0.4094,-0.61272 0.84785,-1.20387 1.31533,-1.7735 0.46749,-0.56963 0.96177,-1.11499 1.48284,-1.63606 0.52107,-0.52107 1.06642,-1.01534 1.63605,-1.48282 0.56964,-0.46748 1.16081,-0.90595 1.77352,-1.31535 0.61271,-0.4094 1.24402,-0.78779 1.89391,-1.13515 0.64989,-0.34737 1.31523,-0.66207 1.99604,-0.94406 0.68082,-0.282 1.37381,-0.52996 2.07899,-0.74385 0.70516,-0.21392 1.41912,-0.39276 2.14186,-0.53653 0.72275,-0.14376 1.4508,-0.25176 2.18416,-0.32398 0.73336,-0.0722 1.46848,-0.10834 2.20538,-0.10835 z"
       style="fill:#dae8fc;fill-opacity:1;fill-rule:nonzero;stroke:#6c8ebf;stroke-width:3;stroke-linecap:butt;stroke-linejoin:miter;stroke-miterlimit:10;stroke-dasharray:none;stroke-opacity:1"
       transform="matrix(0.95999996,0,0,0.95999996,0.47999998,0.47999998)"
       clip-path="url(#clipPath5)" />
    <g
       id="g5" />
    <text
       id="text5"
       xml:space="preserve"
       transform="matrix(0.95999996,0,0,0.95999996,211.19999,212.15999)"
       clip-path="url(#clipPath6)"><tspan
         id="tspan5"
         style="font-variant:normal;font-weight:normal;font-stretch:normal;font-size:1e-32px;writing-mode:lr-tb;fill:#000000;fill-opacity:1;fill-rule:nonzero;stroke:none"
         x="0"
         y="0">✍</tspan></text>
    <path
       style="font-weight:700;font-size:16px;fill:#6c8ebf"
       d="m 5.3984375,-1.6640625 q 0.8515625,0 1.3828125,-0.1875 1.0078125,-0.359375 1.0078125,-1.3359375 0,-0.5703125 -0.5,-0.8828125 Q 6.7890625,-4.375 5.71875,-4.609375 L 4.5,-4.8828125 Q 2.703125,-5.2890625 2.015625,-5.765625 0.8515625,-6.5625 0.8515625,-8.2578125 q 0,-1.546875 1.125,-2.5703125 1.125,-1.023438 3.3046875,-1.023438 1.8203125,0 3.1015625,0.96875 1.2890625,0.960938 1.3515625,2.7968755 h -2.3125 Q 7.359375,-9.125 6.515625,-9.5625 q -0.5625,-0.2890625 -1.3984375,-0.2890625 -0.9296875,0 -1.484375,0.375 -0.5546875,0.375 -0.5546875,1.046875 0,0.6171875 0.546875,0.921875 0.3515625,0.203125 1.5,0.4765625 l 1.984375,0.4765625 q 1.3046875,0.3125 1.96875,0.8359375 1.03125,0.8125 1.03125,2.3515625 0,1.578125 -1.2109375,2.625 -1.203125,1.0390625 -3.40625,1.0390625 -2.25,0 -3.5390625,-1.0234375 -1.2890625,-1.03125 -1.2890625,-2.828125 h 2.296875 Q 3.0703125,-2.765625 3.390625,-2.375 3.9765625,-1.6640625 5.3984375,-1.6640625 Z M 20.257812,-11.515625 v 2.0390625 H 16.8125 V 0 h -2.421875 v -9.4765625 h -3.460937 v -2.0390625 z m 9.421875,6.484375 h -5.59375 v 2.9609375 h 6.375 V 0 h -8.726562 v -11.515625 h 8.445312 v 2.0390625 h -6.09375 V -7.03125 h 5.59375 z m 7.546875,0.890625 H 34.78125 V 0 h -2.390625 v -11.515625 h 5.015625 q 1.734375,0 2.765625,0.890625 1.03125,0.890625 1.03125,2.7578125 0,2.0390625 -1.03125,2.8828125 -1.03125,0.84375 -2.945313,0.84375 z m 1.125,-2.3984375 q 0.46875,-0.4140625 0.46875,-1.3125 0,-0.8984375 -0.476562,-1.28125 Q 37.875,-9.515625 37.023437,-9.515625 H 34.78125 V -6.125 h 2.242187 q 0.851563,0 1.328125,-0.4140625 z M 52.007812,0 h -2.28125 V -7.8125 H 47.0625 v -1.515625 q 1.054687,-0.046875 1.476562,-0.140625 0.671875,-0.1484375 1.09375,-0.59375 0.289063,-0.304688 0.4375,-0.8125 0.08594,-0.304688 0.08594,-0.453125 h 1.851562 z"
       id="text6"
       clip-path="url(#clipPath7)"
       transform="matrix(0.95999996,0,0,0.95999996,213.65999,244.79999)"
       aria-label="STEP 1" />
    <path
       style="font-weight:600;font-size:1e-32px;"
       d="M 0,0 V 0 H 0 C 0,0 0,0 0,0 V 0 C 0,0 0,0 0,0 0,0 0,0 0,0 H 0 C 0,0 0,0 0,0 V 0 C 0,0 0,0 0,0 H 0 V 0 H 0 C 0,0 0,0 0,0 V 0 C 0,0 0,0 0,0 Z M 0,0 C 0,0 0,0 0,0 H 0 C 0,0 0,0 0,0 V 0 C 0,0 0,0 0,0 H 0 C 0,0 0,0 0,0 Z M 0,0 C 0,0 0,0 0,0 V 0 C 0,0 0,0 0,0 0,0 0,0 0,0 0,0 0,0 0,0 L 0,0 C 0,0 0,0 0,0 V 0 C 0,0 0,0 0,0 H 0 C 0,0 0,0 0,0 V 0 C 0,0 0,0 0,0 Z M 0,0 C 0,0 0,0 0,0 L 0,0 C 0,0 0,0 0,0 Z M 0,0 C 0,0 0,0 0,0 L 0,0 C 0,0 0,0 0,0 Z M 0,0 C 0,0 0,0 0,0 H 0 C 0,0 0,0 0,0 V 0 C 0,0 0,0 0,0 H 0 C 0,0 0,0 0,0 Z M 0,0 C 0,0 0,0 0,0 H 0 C 0,0 0,0 0,0 V 0 C 0,0 0,0 0,0 H 0 C 0,0 0,0 0,0 Z M 0,0 C 0,0 0,0 0,0 H 0 C 0,0 0,0 0,0 V 0 C 0,0 0,0 0,0 H 0 C 0,0 0,0 0,0 Z M 0,0 C 0,0 0,0 0,0 H 0 C 0,0 0,0 0,0 V 0 C 0,0 0,0 0,0 H 0 C 0,0 0,0 0,0 Z M 0,0 V 0 H 0 V 0 H 0 C 0,0 0,0 0,0 V 0 C 0,0 0,0 0,0 0,0 0,0 0,0 H 0 C 0,0 0,0 0,0 0,0 0,0 0,0 V 0 C 0,0 0,0 0,0 Z M 0,0 H 0 V 0 H 0 Z M 0,0 H 0 C 0,0 0,0 0,0 0,0 0,0 0,0 V 0 C 0,0 0,0 0,0 0,0 0,0 0,0 H 0 C 0,0 0,0 0,0 V 0 C 0,0 0,0 0,0 H 0 V 0 H 0 C 0,0 0,0 0,0 0,0 0,0 0,0 V 0 C 0,0 0,0 0,0 0,0 0,0 0,0 0,0 0,0 0,0 0,0 0,0 0,0 0,0 0,0 0,0 0,0 0,0 0,0 0,0 0,0 0,0 0,0 0,0 0,0 Z M 0,0 V 0 C 0,0 0,0 0,0 H 0 C 0,0 0,0 0,0 V 0 H 0 C 0,0 0,0 0,0 V 0 C 0,0 0,0 0,0 L 0,0 C 0,0 0,0 0,0 L 0,0 C 0,0 0,0 0,0 H 0 V 0 C 0,0 0,0 0,0 H 0 C 0,0 0,0 0,0 V 0 H 0 C 0,0 0,0 0,0 V 0 C 0,0 0,0 0,0 Z M 0,0 C 0,0 0,0 0,0 0,0 0,0 0,0 0,0 0,0 0,0 0,0 0,0 0,0 Z M 0,0 C 0,0 0,0 0,0 0,0 0,0 0,0 0,0 0,0 0,0 Z M 0,0 C 0,0 0,0 0,0 L 0,0 C 0,0 0,0 0,0 Z M 0,0 C 0,0 0,0 0,0 H 0 V 0 C 0,0 0,0 0,0 L 0,0 C 0,0 0,0 0,0 0,0 0,0 0,0 0,0 0,0 0,0 0,0 0,0 0,0 0,0 0,0 0,0 0,0 0,0 0,0 0,0 0,0 0,0 0,0 0,0 0,0 0,0 0,0 0,0 V 0 C 0,0 0,0 0,0 0,0 0,0 0,0 H 0 C 0,0 0,0 0,0 Z"
       id="text7"
       clip-path="url(#clipPath8)"
       transform="matrix(0.95999996,0,0,0.95999996,196.79999,273.59999)"
       aria-label="コード記述" />
    <path
       id="path9"
       d="m 572.5,150 h 255 c 0.73694,1e-5 1.47205,0.0361 2.20538,0.10835 0.73334,0.0722 1.46137,0.18022 2.18409,0.32398 0.72277,0.14377 1.43676,0.32261 2.14196,0.53653 0.70514,0.21389 1.39807,0.46185 2.07886,0.74385 0.68085,0.28199 1.34625,0.59669 1.99609,0.94406 0.64997,0.34736 1.28125,0.72575 1.89393,1.13515 0.61273,0.4094 1.20391,0.84787 1.77355,1.31535 0.56965,0.46748 1.11493,0.96175 1.63599,1.48282 0.52106,0.52107 1.01538,1.06643 1.48285,1.63606 0.46747,0.56963 0.90588,1.16078 1.31525,1.7735 0.40942,0.61272 0.78784,1.24402 1.13525,1.8939 0.34735,0.64989 0.66205,1.31525 0.94397,1.99605 0.28204,0.68082 0.53003,1.37381 0.74396,2.079 0.21393,0.70517 0.39276,1.41913 0.5365,2.14186 0.1438,0.72275 0.25183,1.4508 0.32403,2.18416 0.0723,0.73336 0.1084,1.46849 0.10834,2.20538 v 105 c 6e-5,0.73691 -0.0361,1.47205 -0.10834,2.20538 -0.0722,0.73337 -0.18023,1.4614 -0.32403,2.18415 -0.14374,0.72274 -0.32257,1.4367 -0.5365,2.14187 -0.21387,0.70517 -0.46186,1.39817 -0.7439,2.07895 -0.28198,0.68082 -0.59662,1.34616 -0.94397,1.99603 -0.34741,0.64991 -0.72583,1.28122 -1.13525,1.89393 -0.40936,0.6127 -0.84784,1.20388 -1.31531,1.77355 -0.46747,0.56962 -0.96179,1.11496 -1.48285,1.63602 -0.52106,0.52106 -1.06634,1.01535 -1.63599,1.48285 -0.56964,0.46747 -1.16082,0.90588 -1.77355,1.31528 -0.61268,0.40942 -1.24396,0.78781 -1.89386,1.13519 -0.64991,0.34738 -1.31531,0.66205 -1.99616,0.94403 -0.68079,0.28201 -1.37378,0.52997 -2.07892,0.7439 -0.70514,0.2139 -1.41913,0.39273 -2.1419,0.5365 -0.72272,0.1438 -1.45075,0.2518 -2.18409,0.32403 C 828.97205,299.9639 828.23694,300 827.5,300 h -255 c -0.73694,0 -1.47211,-0.0361 -2.20544,-0.10834 -0.7334,-0.0722 -1.46149,-0.18023 -2.18421,-0.32403 -0.72272,-0.14377 -1.4367,-0.3226 -2.14184,-0.5365 -0.70514,-0.21393 -1.39814,-0.46189 -2.07898,-0.7439 -0.68079,-0.28198 -1.34613,-0.59665 -1.99604,-0.94403 -0.6499,-0.34738 -1.28119,-0.72577 -1.89392,-1.13519 -0.61273,-0.4094 -1.20385,-0.84781 -1.77343,-1.31528 -0.56965,-0.4675 -1.11506,-0.96179 -1.63611,-1.48285 -0.52106,-0.52106 -1.01538,-1.0664 -1.48285,-1.63602 -0.46747,-0.56967 -0.90589,-1.16085 -1.31531,-1.77355 -0.40936,-0.61271 -0.78772,-1.24402 -1.13507,-1.89393 -0.34735,-0.64987 -0.66211,-1.31521 -0.94415,-1.99603 -0.28199,-0.68078 -0.52991,-1.37378 -0.74384,-2.07895 -0.21393,-0.70517 -0.39276,-1.41913 -0.5365,-2.14187 -0.14374,-0.72275 -0.25171,-1.45078 -0.32391,-2.18415 C 550.03613,278.97205 550,278.23691 550,277.5 v -105 c 0,-0.73689 0.0361,-1.47202 0.1084,-2.20538 0.0722,-0.73336 0.18017,-1.46141 0.32391,-2.18416 0.14374,-0.72273 0.32257,-1.43669 0.5365,-2.14188 0.21393,-0.70517 0.46185,-1.39816 0.74384,-2.07898 0.28204,-0.6808 0.5968,-1.34616 0.94415,-1.99605 0.34735,-0.64988 0.72571,-1.28118 1.13507,-1.8939 0.40942,-0.61272 0.8479,-1.20387 1.31537,-1.7735 0.46747,-0.56963 0.96173,-1.11499 1.48279,-1.63606 0.52105,-0.52107 1.06646,-1.01534 1.63611,-1.48282 0.56964,-0.46748 1.16076,-0.90595 1.77349,-1.31535 0.61274,-0.4094 1.24402,-0.78779 1.89386,-1.13515 0.64991,-0.34737 1.31525,-0.66207 1.99604,-0.94406 0.68084,-0.282 1.37384,-0.52996 2.07898,-0.74385 0.70514,-0.21392 1.41912,-0.39276 2.14184,-0.53653 0.72272,-0.14376 1.45081,-0.25176 2.18421,-0.32398 0.73333,-0.0722 1.4685,-0.10834 2.20544,-0.10835 z"
       style="fill:#d5e8d4;fill-opacity:1;fill-rule:nonzero;stroke:#82b366;stroke-width:3;stroke-linecap:butt;stroke-linejoin:miter;stroke-miterlimit:10;stroke-dasharray:none;stroke-opacity:1"
       transform="matrix(0.95999996,0,0,0.95999996,0.47999998,0.47999998)"
       clip-path="url(#clipPath10)" />
    <text
       id="text10"
       xml:space="preserve"
       transform="matrix(0.95999996,0,0,0.95999996,643.19997,212.15999)"
       clip-path="url(#clipPath11)"><tspan
         id="tspan10"
         style="font-variant:normal;font-weight:normal;font-stretch:normal;font-size:1e-32px;writing-mode:lr-tb;fill:#000000;fill-opacity:1;fill-rule:nonzero;stroke:none"
         x="0"
         y="0">⚡</tspan></text>
    <path
       style="font-weight:700;font-size:16px;fill:#82b366"
       d="m 5.3984375,-1.6640625 q 0.8515625,0 1.3828125,-0.1875 1.0078125,-0.359375 1.0078125,-1.3359375 0,-0.5703125 -0.5,-0.8828125 Q 6.7890625,-4.375 5.71875,-4.609375 L 4.5,-4.8828125 Q 2.703125,-5.2890625 2.015625,-5.765625 0.8515625,-6.5625 0.8515625,-8.2578125 q 0,-1.546875 1.125,-2.5703125 1.125,-1.023438 3.3046875,-1.023438 1.8203125,0 3.1015625,0.96875 1.2890625,0.960938 1.3515625,2.7968755 h -2.3125 Q 7.359375,-9.125 6.515625,-9.5625 q -0.5625,-0.2890625 -1.3984375,-0.2890625 -0.9296875,0 -1.484375,0.375 -0.5546875,0.375 -0.5546875,1.046875 0,0.6171875 0.546875,0.921875 0.3515625,0.203125 1.5,0.4765625 l 1.984375,0.4765625 q 1.3046875,0.3125 1.96875,0.8359375 1.03125,0.8125 1.03125,2.3515625 0,1.578125 -1.2109375,2.625 -1.203125,1.0390625 -3.40625,1.0390625 -2.25,0 -3.5390625,-1.0234375 -1.2890625,-1.03125 -1.2890625,-2.828125 h 2.296875 Q 3.0703125,-2.765625 3.390625,-2.375 3.9765625,-1.6640625 5.3984375,-1.6640625 Z M 20.257812,-11.515625 v 2.0390625 H 16.8125 V 0 h -2.421875 v -9.4765625 h -3.460937 v -2.0390625 z m 9.421875,6.484375 h -5.59375 v 2.9609375 h 6.375 V 0 h -8.726562 v -11.515625 h 8.445312 v 2.0390625 h -6.09375 V -7.03125 h 5.59375 z m 7.546875,0.890625 H 34.78125 V 0 h -2.390625 v -11.515625 h 5.015625 q 1.734375,0 2.765625,0.890625 1.03125,0.890625 1.03125,2.7578125 0,2.0390625 -1.03125,2.8828125 -1.03125,0.84375 -2.945313,0.84375 z m 1.125,-2.3984375 q 0.46875,-0.4140625 0.46875,-1.3125 0,-0.8984375 -0.476562,-1.28125 Q 37.875,-9.515625 37.023437,-9.515625 H 34.78125 V -6.125 h 2.242187 q 0.851563,0 1.328125,-0.4140625 z m 13.164063,-2.484375 Q 51.117187,-9.5 50.375,-9.5 q -1.015625,0 -1.382813,0.7578125 -0.210937,0.4375 -0.25,1.390625 h -2.164062 q 0.05469,-1.4453125 0.523437,-2.3359375 0.890625,-1.695313 3.164063,-1.695313 1.796875,0 2.859375,1 1.0625,0.992188 1.0625,2.632813 0,1.2578125 -0.75,2.234375 -0.492188,0.6484375 -1.617188,1.4453125 L 50.929687,-3.4375 q -0.835937,0.59375 -1.148437,0.859375 -0.304688,0.265625 -0.515625,0.6171875 h 4.945312 V 0 h -7.757812 q 0.03125,-1.21875 0.523437,-2.2265625 0.476563,-1.1328125 2.25,-2.3984375 1.539063,-1.1015625 1.992188,-1.578125 0.695312,-0.7421875 0.695312,-1.625 0,-0.71875 -0.398437,-1.1953125 z"
       id="text11"
       clip-path="url(#clipPath12)"
       transform="matrix(0.95999996,0,0,0.95999996,645.65997,244.79999)"
       aria-label="STEP 2" />
    <g
       id="g12" />
    <path
       style="font-weight:600;font-size:1e-32px;"
       d="M 0,0 C 0,0 0,0 0,0 L 0,0 V 0 C 0,0 0,0 0,0 H 0 C 0,0 0,0 0,0 V 0 L 0,0 C 0,0 0,0 0,0 0,0 0,0 0,0 L 0,0 C 0,0 0,0 0,0 L 0,0 V 0 C 0,0 0,0 0,0 0,0 0,0 0,0 0,0 0,0 0,0 0,0 0,0 0,0 0,0 0,0 0,0 L 0,0 C 0,0 0,0 0,0 0,0 0,0 0,0 0,0 0,0 0,0 V 0 C 0,0 0,0 0,0 0,0 0,0 0,0 0,0 0,0 0,0 0,0 0,0 0,0 0,0 0,0 0,0 0,0 0,0 0,0 0,0 0,0 0,0 Z M 0,0 C 0,0 0,0 0,0 0,0 0,0 0,0 0,0 0,0 0,0 0,0 0,0 0,0 0,0 0,0 0,0 0,0 0,0 0,0 0,0 0,0 0,0 Z M 0,0 C 0,0 0,0 0,0 V 0 L 0,0 C 0,0 0,0 0,0 L 0,0 C 0,0 0,0 0,0 0,0 0,0 0,0 0,0 0,0 0,0 0,0 0,0 0,0 0,0 0,0 0,0 0,0 0,0 0,0 L 0,0 C 0,0 0,0 0,0 Z M 0,0 C 0,0 0,0 0,0 H 0 C 0,0 0,0 0,0 V 0 C 0,0 0,0 0,0 H 0 C 0,0 0,0 0,0 H 0 C 0,0 0,0 0,0 V 0 C 0,0 0,0 0,0 H 0 C 0,0 0,0 0,0 0,0 0,0 0,0 0,0 0,0 0,0 0,0 0,0 0,0 0,0 0,0 0,0 0,0 0,0 0,0 0,0 0,0 0,0 0,0 0,0 0,0 0,0 0,0 0,0 0,0 0,0 0,0 0,0 0,0 0,0 H 0 C 0,0 0,0 0,0 V 0 C 0,0 0,0 0,0 H 0 C 0,0 0,0 0,0 H 0 C 0,0 0,0 0,0 V 0 C 0,0 0,0 0,0 H 0 C 0,0 0,0 0,0 H 0 C 0,0 0,0 0,0 V 0 H 0 C 0,0 0,0 0,0 V 0 C 0,0 0,0 0,0 0,0 0,0 0,0 H 0 V 0 C 0,0 0,0 0,0 H 0 C 0,0 0,0 0,0 V 0 H 0 C 0,0 0,0 0,0 0,0 0,0 0,0 V 0 C 0,0 0,0 0,0 H 0 V 0 C 0,0 0,0 0,0 Z M 0,0 C 0,0 0,0 0,0 V 0 H 0 V 0 C 0,0 0,0 0,0 H 0 C 0,0 0,0 0,0 H 0 C 0,0 0,0 0,0 Z M 0,0 V 0 C 0,0 0,0 0,0 0,0 0,0 0,0 0,0 0,0 0,0 0,0 0,0 0,0 0,0 0,0 0,0 V 0 H 0 C 0,0 0,0 0,0 V 0 C 0,0 0,0 0,0 H 0 C 0,0 0,0 0,0 V 0 C 0,0 0,0 0,0 Z M 0,0 C 0,0 0,0 0,0 0,0 0,0 0,0 0,0 0,0 0,0 0,0 0,0 0,0 0,0 0,0 0,0 Z M 0,0 C 0,0 0,0 0,0 H 0 C 0,0 0,0 0,0 V 0 C 0,0 0,0 0,0 H 0 C 0,0 0,0 0,0 Z M 0,0 C 0,0 0,0 0,0 H 0 C 0,0 0,0 0,0 V 0 C 0,0 0,0 0,0 0,0 0,0 0,0 L 0,0 C 0,0 0,0 0,0 0,0 0,0 0,0 0,0 0,0 0,0 0,0 0,0 0,0 Z M 0,0 C 0,0 0,0 0,0 0,0 0,0 0,0 0,0 0,0 0,0 0,0 0,0 0,0 H 0 C 0,0 0,0 0,0 0,0 0,0 0,0 0,0 0,0 0,0 0,0 0,0 0,0 Z M 0,0 C 0,0 0,0 0,0 H 0 C 0,0 0,0 0,0 0,0 0,0 0,0 L 0,0 C 0,0 0,0 0,0 0,0 0,0 0,0 0,0 0,0 0,0 0,0 0,0 0,0 0,0 0,0 0,0 0,0 0,0 0,0 0,0 0,0 0,0 0,0 0,0 0,0 0,0 0,0 0,0 0,0 0,0 0,0 0,0 0,0 0,0 0,0 0,0 0,0 0,0 0,0 0,0 0,0 0,0 0,0 Z M 0,0 C 0,0 0,0 0,0 0,0 0,0 0,0 0,0 0,0 0,0 Z M 0,0 C 0,0 0,0 0,0 0,0 0,0 0,0 0,0 0,0 0,0 V 0 C 0,0 0,0 0,0 H 0 C 0,0 0,0 0,0 L 0,0 C 0,0 0,0 0,0 H 0 C 0,0 0,0 0,0 V 0 C 0,0 0,0 0,0 H 0 C 0,0 0,0 0,0 0,0 0,0 0,0 0,0 0,0 0,0 0,0 0,0 0,0 0,0 0,0 0,0 0,0 0,0 0,0 Z M 0,0 C 0,0 0,0 0,0 0,0 0,0 0,0 0,0 0,0 0,0 Z M 0,0 V 0 C 0,0 0,0 0,0 H 0 C 0,0 0,0 0,0 V 0 H 0 C 0,0 0,0 0,0 V 0 C 0,0 0,0 0,0 H 0 C 0,0 0,0 0,0 0,0 0,0 0,0 0,0 0,0 0,0 0,0 0,0 0,0 V 0 C 0,0 0,0 0,0 H 0 C 0,0 0,0 0,0 V 0 C 0,0 0,0 0,0 0,0 0,0 0,0 0,0 0,0 0,0 0,0 0,0 0,0 H 0 C 0,0 0,0 0,0 V 0 C 0,0 0,0 0,0 Z M 0,0 C 0,0 0,0 0,0 L 0,0 C 0,0 0,0 0,0 Z M 0,0 C 0,0 0,0 0,0 L 0,0 C 0,0 0,0 0,0 Z M 0,0 H 0 C 0,0 0,0 0,0 V 0 C 0,0 0,0 0,0 H 0 C 0,0 0,0 0,0 0,0 0,0 0,0 0,0 0,0 0,0 0,0 0,0 0,0 0,0 0,0 0,0 V 0 C 0,0 0,0 0,0 H 0 C 0,0 0,0 0,0 V 0 C 0,0 0,0 0,0 0,0 0,0 0,0 0,0 0,0 0,0 0,0 0,0 0,0 H 0 C 0,0 0,0 0,0 V 0 C 0,0 0,0 0,0 H 0 V 0 C 0,0 0,0 0,0 0,0 0,0 0,0 L 0,0 C 0,0 0,0 0,0 0,0 0,0 0,0 0,0 0,0 0,0 Z M 0,0 C 0,0 0,0 0,0 H 0 C 0,0 0,0 0,0 V 0 C 0,0 0,0 0,0 0,0 0,0 0,0 0,0 0,0 0,0 0,0 0,0 0,0 0,0 0,0 0,0 Z M 0,0 C 0,0 0,0 0,0 0,0 0,0 0,0 0,0 0,0 0,0 0,0 0,0 0,0 0,0 0,0 0,0 Z M 0,0 C 0,0 0,0 0,0 0,0 0,0 0,0 0,0 0,0 0,0 Z M 0,0 C 0,0 0,0 0,0 0,0 0,0 0,0 0,0 0,0 0,0 0,0 0,0 0,0 0,0 0,0 0,0 0,0 0,0 0,0 0,0 0,0 0,0 Z M 0,0 C 0,0 0,0 0,0 0,0 0,0 0,0 0,0 0,0 0,0 0,0 0,0 0,0 H 0 C 0,0 0,0 0,0 0,0 0,0 0,0 0,0 0,0 0,0 0,0 0,0 0,0 Z"
       id="text12"
       clip-path="url(#clipPath13)"
       transform="matrix(0.95999996,0,0,0.95999996,602.87997,273.59999)"
       aria-label="セル実⾏（数秒）" />
    <path
       id="path14"
       d="m 1022.5,150 h 255 c 0.7369,1e-5 1.4721,0.0361 2.2054,0.10835 0.7333,0.0722 1.4614,0.18022 2.184,0.32398 0.7228,0.14377 1.4368,0.32261 2.142,0.53653 0.7052,0.21389 1.398,0.46185 2.0788,0.74385 0.6808,0.28199 1.3462,0.59669 1.996,0.94406 0.65,0.34736 1.2813,0.72575 1.8939,1.13515 0.6128,0.4094 1.204,0.84787 1.7737,1.31535 0.5697,0.46748 1.115,0.96175 1.636,1.48282 0.5211,0.52107 1.0154,1.06643 1.4828,1.63606 0.4674,0.56963 0.9059,1.16078 1.3153,1.7735 0.4094,0.61272 0.7878,1.24402 1.1352,1.8939 0.3473,0.64989 0.662,1.31525 0.944,1.99605 0.2821,0.68082 0.53,1.37381 0.7439,2.079 0.2139,0.70517 0.3927,1.41913 0.5365,2.14186 0.1439,0.72275 0.252,1.4508 0.3241,2.18416 0.072,0.73336 0.1084,1.46849 0.1084,2.20538 v 105 c 0,0.73691 -0.036,1.47205 -0.1084,2.20538 -0.072,0.73337 -0.1802,1.4614 -0.3241,2.18415 -0.1438,0.72274 -0.3226,1.4367 -0.5365,2.14187 -0.2139,0.70517 -0.4618,1.39817 -0.7439,2.07895 -0.282,0.68082 -0.5967,1.34616 -0.944,1.99603 -0.3474,0.64991 -0.7258,1.28122 -1.1352,1.89393 -0.4094,0.6127 -0.8479,1.20388 -1.3153,1.77355 -0.4674,0.56962 -0.9617,1.11496 -1.4828,1.63602 -0.521,0.52106 -1.0663,1.01535 -1.636,1.48285 -0.5696,0.46747 -1.1608,0.90588 -1.7736,1.31528 -0.6126,0.40942 -1.2438,0.78781 -1.8939,1.13519 -0.6499,0.34738 -1.3153,0.66205 -1.9961,0.94403 -0.6808,0.28201 -1.3737,0.52997 -2.0789,0.7439 -0.7052,0.2139 -1.4191,0.39273 -2.1419,0.5365 -0.7226,0.1438 -1.4507,0.2518 -2.184,0.32403 C 1278.9721,299.9639 1278.2369,300 1277.5,300 h -255 c -0.7369,0 -1.4721,-0.0361 -2.2054,-0.10834 -0.7334,-0.0722 -1.4615,-0.18023 -2.1842,-0.32403 -0.7228,-0.14377 -1.4367,-0.3226 -2.1419,-0.5365 -0.7051,-0.21393 -1.3982,-0.46189 -2.079,-0.7439 -0.6808,-0.28198 -1.3462,-0.59665 -1.996,-0.94403 -0.65,-0.34738 -1.2813,-0.72577 -1.894,-1.13519 -0.6127,-0.4094 -1.2038,-0.84781 -1.7734,-1.31528 -0.5697,-0.4675 -1.115,-0.96179 -1.6361,-1.48285 -0.5211,-0.52106 -1.0153,-1.0664 -1.4829,-1.63602 -0.4675,-0.56967 -0.9059,-1.16085 -1.3153,-1.77355 -0.4094,-0.61271 -0.7878,-1.24402 -1.1351,-1.89393 -0.3474,-0.64987 -0.6621,-1.31521 -0.9442,-1.99603 -0.2819,-0.68078 -0.5298,-1.37378 -0.7438,-2.07895 -0.2139,-0.70517 -0.3927,-1.41913 -0.5365,-2.14187 -0.1437,-0.72275 -0.2517,-1.45078 -0.3239,-2.18415 C 1000.0361,278.97205 1000,278.23691 1000,277.5 v -105 c 0,-0.73689 0.036,-1.47202 0.1083,-2.20538 0.072,-0.73336 0.1802,-1.46141 0.3239,-2.18416 0.1437,-0.72273 0.3226,-1.43669 0.5365,-2.14188 0.2139,-0.70517 0.4618,-1.39816 0.7438,-2.07898 0.282,-0.6808 0.5967,-1.34616 0.9441,-1.99605 0.3474,-0.64988 0.7258,-1.28118 1.1352,-1.8939 0.4094,-0.61272 0.8478,-1.20387 1.3153,-1.7735 0.4676,-0.56963 0.9618,-1.11499 1.4829,-1.63606 0.5211,-0.52107 1.0664,-1.01534 1.6361,-1.48282 0.5696,-0.46748 1.1607,-0.90595 1.7734,-1.31535 0.6127,-0.4094 1.244,-0.78779 1.8939,-1.13515 0.6499,-0.34737 1.3153,-0.66207 1.9961,-0.94406 0.6808,-0.282 1.3739,-0.52996 2.079,-0.74385 0.7052,-0.21392 1.4191,-0.39276 2.1419,-0.53653 0.7227,-0.14376 1.4508,-0.25176 2.1842,-0.32398 0.7333,-0.0722 1.4685,-0.10834 2.2054,-0.10835 z"
       style="fill:#fff2cc;fill-opacity:1;fill-rule:nonzero;stroke:#d6b656;stroke-width:3;stroke-linecap:butt;stroke-linejoin:miter;stroke-miterlimit:10;stroke-dasharray:none;stroke-opacity:1"
       transform="matrix(0.95999996,0,0,0.95999996,0.47999998,0.47999998)"
       clip-path="url(#clipPath15)" />
    <text
       id="text15"
       xml:space="preserve"
       transform="matrix(0.95999996,0,0,0.95999996,1075.2,212.15999)"
       clip-path="url(#clipPath16)"><tspan
         id="tspan15"
         style="font-variant:normal;font-weight:normal;font-stretch:normal;font-size:1e-32px;writing-mode:lr-tb;fill:#000000;fill-opacity:1;fill-rule:nonzero;stroke:none"
         x="0"
         y="0">📊</tspan></text>
    <path
       style="font-weight:700;font-size:16px;fill:#d6b656"
       d="m 5.3984375,-1.6640625 q 0.8515625,0 1.3828125,-0.1875 1.0078125,-0.359375 1.0078125,-1.3359375 0,-0.5703125 -0.5,-0.8828125 Q 6.7890625,-4.375 5.71875,-4.609375 L 4.5,-4.8828125 Q 2.703125,-5.2890625 2.015625,-5.765625 0.8515625,-6.5625 0.8515625,-8.2578125 q 0,-1.546875 1.125,-2.5703125 1.125,-1.023438 3.3046875,-1.023438 1.8203125,0 3.1015625,0.96875 1.2890625,0.960938 1.3515625,2.7968755 h -2.3125 Q 7.359375,-9.125 6.515625,-9.5625 q -0.5625,-0.2890625 -1.3984375,-0.2890625 -0.9296875,0 -1.484375,0.375 -0.5546875,0.375 -0.5546875,1.046875 0,0.6171875 0.546875,0.921875 0.3515625,0.203125 1.5,0.4765625 l 1.984375,0.4765625 q 1.3046875,0.3125 1.96875,0.8359375 1.03125,0.8125 1.03125,2.3515625 0,1.578125 -1.2109375,2.625 -1.203125,1.0390625 -3.40625,1.0390625 -2.25,0 -3.5390625,-1.0234375 -1.2890625,-1.03125 -1.2890625,-2.828125 h 2.296875 Q 3.0703125,-2.765625 3.390625,-2.375 3.9765625,-1.6640625 5.3984375,-1.6640625 Z M 20.257812,-11.515625 v 2.0390625 H 16.8125 V 0 h -2.421875 v -9.4765625 h -3.460937 v -2.0390625 z m 9.421875,6.484375 h -5.59375 v 2.9609375 h 6.375 V 0 h -8.726562 v -11.515625 h 8.445312 v 2.0390625 h -6.09375 V -7.03125 h 5.59375 z m 7.546875,0.890625 H 34.78125 V 0 h -2.390625 v -11.515625 h 5.015625 q 1.734375,0 2.765625,0.890625 1.03125,0.890625 1.03125,2.7578125 0,2.0390625 -1.03125,2.8828125 -1.03125,0.84375 -2.945313,0.84375 z m 1.125,-2.3984375 q 0.46875,-0.4140625 0.46875,-1.3125 0,-0.8984375 -0.476562,-1.28125 Q 37.875,-9.515625 37.023437,-9.515625 H 34.78125 V -6.125 h 2.242187 q 0.851563,0 1.328125,-0.4140625 z m 10.664063,-2.53125 q -0.375,0.5 -0.359375,1.3359375 h -2.078125 q 0.03125,-0.84375 0.289062,-1.6015625 Q 47.140625,-10 47.726562,-10.5625 q 0.4375,-0.398438 1.039063,-0.609375 0.601562,-0.210938 1.476562,-0.210938 1.625,0 2.617188,0.84375 1,0.835938 1,2.2500005 0,1 -0.59375,1.6875 -0.375,0.4296875 -0.78125,0.5859375 0.304687,0 0.875,0.5234375 0.851562,0.7890625 0.851562,2.15625 0,1.4375 -1,2.53125 Q 52.21875,0.28125 50.265625,0.28125 q -2.40625,0 -3.34375,-1.5703125 Q 46.429687,-2.125 46.375,-3.4765625 h 2.1875 q 0,0.6796875 0.21875,1.125 0.40625,0.8203125 1.476562,0.8203125 0.65625,0 1.140625,-0.4453125 0.492188,-0.453125 0.492188,-1.296875 0,-1.1171875 -0.90625,-1.4921875 -0.515625,-0.2109375 -1.625,-0.2109375 v -1.59375 q 1.085937,-0.015625 1.515625,-0.2109375 0.742187,-0.328125 0.742187,-1.328125 0,-0.6484375 -0.382812,-1.0546875 -0.375,-0.40625 -1.0625,-0.40625 -0.789063,0 -1.15625,0.5 z"
       id="text16"
       clip-path="url(#clipPath17)"
       transform="matrix(0.95999996,0,0,0.95999996,1077.66,244.79999)"
       aria-label="STEP 3" />
    <path
       style="font-weight:600;font-size:1e-32px;"
       d="M 0,0 0,0 V 0 C 0,0 0,0 0,0 H 0 C 0,0 0,0 0,0 V 0 C 0,0 0,0 0,0 0,0 0,0 0,0 L 0,0 C 0,0 0,0 0,0 L 0,0 C 0,0 0,0 0,0 0,0 0,0 0,0 0,0 0,0 0,0 0,0 0,0 0,0 L 0,0 C 0,0 0,0 0,0 0,0 0,0 0,0 0,0 0,0 0,0 0,0 0,0 0,0 L 0,0 C 0,0 0,0 0,0 L 0,0 0,0 C 0,0 0,0 0,0 0,0 0,0 0,0 0,0 0,0 0,0 0,0 0,0 0,0 Z M 0,0 V 0 H 0 C 0,0 0,0 0,0 V 0 C 0,0 0,0 0,0 H 0 C 0,0 0,0 0,0 V 0 C 0,0 0,0 0,0 H 0 V 0 H 0 C 0,0 0,0 0,0 V 0 C 0,0 0,0 0,0 H 0 V 0 C 0,0 0,0 0,0 H 0 C 0,0 0,0 0,0 V 0 H 0 C 0,0 0,0 0,0 V 0 C 0,0 0,0 0,0 Z M 0,0 C 0,0 0,0 0,0 L 0,0 C 0,0 0,0 0,0 Z M 0,0 C 0,0 0,0 0,0 L 0,0 C 0,0 0,0 0,0 Z M 0,0 H 0 V 0 H 0 C 0,0 0,0 0,0 V 0 C 0,0 0,0 0,0 0,0 0,0 0,0 H 0 C 0,0 0,0 0,0 0,0 0,0 0,0 V 0 C 0,0 0,0 0,0 H 0 Z M 0,0 H 0 V 0 H 0 Z M 0,0 V 0 H 0 C 0,0 0,0 0,0 V 0 C 0,0 0,0 0,0 H 0 C 0,0 0,0 0,0 0,0 0,0 0,0 0,0 0,0 0,0 0,0 0,0 0,0 0,0 0,0 0,0 0,0 0,0 0,0 V 0 C 0,0 0,0 0,0 H 0 C 0,0 0,0 0,0 V 0 C 0,0 0,0 0,0 0,0 0,0 0,0 0,0 0,0 0,0 0,0 0,0 0,0 0,0 0,0 0,0 0,0 0,0 0,0 H 0 C 0,0 0,0 0,0 V 0 C 0,0 0,0 0,0 H 0 V 0 H 0 C 0,0 0,0 0,0 0,0 0,0 0,0 V 0 C 0,0 0,0 0,0 0,0 0,0 0,0 H 0 C 0,0 0,0 0,0 0,0 0,0 0,0 V 0 C 0,0 0,0 0,0 0,0 0,0 0,0 Z M 0,0 V 0 H 0 V 0 Z M 0,0 H 0 V 0 H 0 Z M 0,0 V 0 H 0 V 0 Z M 0,0 H 0 V 0 H 0 Z M 0,0 C 0,0 0,0 0,0 0,0 0,0 0,0 0,0 0,0 0,0 V 0 C 0,0 0,0 0,0 H 0 V 0 H 0 C 0,0 0,0 0,0 V 0 C 0,0 0,0 0,0 H 0 V 0 H 0 C 0,0 0,0 0,0 V 0 C 0,0 0,0 0,0 H 0 V 0 H 0 C 0,0 0,0 0,0 V 0 C 0,0 0,0 0,0 H 0 V 0 H 0 C 0,0 0,0 0,0 V 0 C 0,0 0,0 0,0 H 0 C 0,0 0,0 0,0 L 0,0 C 0,0 0,0 0,0 H 0 C 0,0 0,0 0,0 H 0 V 0 H 0 C 0,0 0,0 0,0 V 0 C 0,0 0,0 0,0 0,0 0,0 0,0 H 0 C 0,0 0,0 0,0 L 0,0 C 0,0 0,0 0,0 H 0 C 0,0 0,0 0,0 0,0 0,0 0,0 V 0 C 0,0 0,0 0,0 H 0 V 0 H 0 C 0,0 0,0 0,0 V 0 C 0,0 0,0 0,0 0,0 0,0 0,0 H 0 C 0,0 0,0 0,0 H 0 C 0,0 0,0 0,0 V 0 C 0,0 0,0 0,0 H 0 C 0,0 0,0 0,0 V 0 C 0,0 0,0 0,0 H 0 C 0,0 0,0 0,0 0,0 0,0 0,0 0,0 0,0 0,0 0,0 0,0 0,0 0,0 0,0 0,0 V 0 C 0,0 0,0 0,0 H 0 V 0 H 0 V 0 H 0 C 0,0 0,0 0,0 Z M 0,0 V 0 H 0 V 0 Z M 0,0 H 0 V 0 H 0 Z M 0,0 H 0 V 0 H 0 Z M 0,0 H 0 V 0 H 0 Z M 0,0 C 0,0 0,0 0,0 0,0 0,0 0,0 0,0 0,0 0,0 0,0 0,0 0,0 0,0 0,0 0,0 L 0,0 C 0,0 0,0 0,0 0,0 0,0 0,0 0,0 0,0 0,0 0,0 0,0 0,0 0,0 0,0 0,0 0,0 0,0 0,0 H 0 C 0,0 0,0 0,0 V 0 C 0,0 0,0 0,0 H 0 C 0,0 0,0 0,0 0,0 0,0 0,0 Z M 0,0 C 0,0 0,0 0,0 0,0 0,0 0,0 0,0 0,0 0,0 L 0,0 C 0,0 0,0 0,0 0,0 0,0 0,0 Z M 0,0 0,0 C 0,0 0,0 0,0 L 0,0 C 0,0 0,0 0,0 V 0 C 0,0 0,0 0,0 0,0 0,0 0,0 H 0 C 0,0 0,0 0,0 0,0 0,0 0,0 V 0 C 0,0 0,0 0,0 H 0 V 0 H 0 V 0 H 0 C 0,0 0,0 0,0 Z M 0,0 H 0 V 0 H 0 Z M 0,0 C 0,0 0,0 0,0 H 0 C 0,0 0,0 0,0 V 0 C 0,0 0,0 0,0 H 0 C 0,0 0,0 0,0 Z M 0,0 C 0,0 0,0 0,0 H 0 C 0,0 0,0 0,0 V 0 C 0,0 0,0 0,0 H 0 C 0,0 0,0 0,0 Z M 0,0 C 0,0 0,0 0,0 H 0 C 0,0 0,0 0,0 V 0 C 0,0 0,0 0,0 H 0 C 0,0 0,0 0,0 Z M 0,0 C 0,0 0,0 0,0 H 0 C 0,0 0,0 0,0 V 0 C 0,0 0,0 0,0 H 0 C 0,0 0,0 0,0 Z M 0,0 C 0,0 0,0 0,0 H 0 C 0,0 0,0 0,0 V 0 C 0,0 0,0 0,0 0,0 0,0 0,0 0,0 0,0 0,0 0,0 0,0 0,0 0,0 0,0 0,0 0,0 0,0 0,0 Z M 0,0 C 0,0 0,0 0,0 L 0,0 C 0,0 0,0 0,0 Z M 0,0 C 0,0 0,0 0,0 L 0,0 C 0,0 0,0 0,0 Z M 0,0 C 0,0 0,0 0,0 0,0 0,0 0,0 0,0 0,0 0,0 0,0 0,0 0,0 H 0 C 0,0 0,0 0,0 0,0 0,0 0,0 0,0 0,0 0,0 0,0 0,0 0,0 Z M 0,0 C 0,0 0,0 0,0 L 0,0 C 0,0 0,0 0,0 0,0 0,0 0,0 V 0 H 0 C 0,0 0,0 0,0 0,0 0,0 0,0 V 0 C 0,0 0,0 0,0 0,0 0,0 0,0 H 0 C 0,0 0,0 0,0 0,0 0,0 0,0 V 0 C 0,0 0,0 0,0 L 0,0 C 0,0 0,0 0,0 0,0 0,0 0,0 0,0 0,0 0,0 Z M 0,0 V 0 H 0 V 0 Z M 0,0 H 0 V 0 H 0 Z M 0,0 C 0,0 0,0 0,0 0,0 0,0 0,0 H 0 C 0,0 0,0 0,0 0,0 0,0 0,0 V 0 C 0,0 0,0 0,0 H 0 C 0,0 0,0 0,0 V 0 H 0 V 0 C 0,0 0,0 0,0 0,0 0,0 0,0 0,0 0,0 0,0 0,0 0,0 0,0 0,0 0,0 0,0 Z M 0,0 H 0 C 0,0 0,0 0,0 V 0 C 0,0 0,0 0,0 H 0 V 0 H 0 C 0,0 0,0 0,0 V 0 C 0,0 0,0 0,0 H 0 C 0,0 0,0 0,0 V 0 C 0,0 0,0 0,0 H 0 V 0 H 0 C 0,0 0,0 0,0 V 0 C 0,0 0,0 0,0 H 0 V 0 C 0,0 0,0 0,0 0,0 0,0 0,0 0,0 0,0 0,0 0,0 0,0 0,0 0,0 0,0 0,0 0,0 0,0 0,0 0,0 0,0 0,0 L 0,0 C 0,0 0,0 0,0 0,0 0,0 0,0 V 0 C 0,0 0,0 0,0 H 0 C 0,0 0,0 0,0 V 0 C 0,0 0,0 0,0 0,0 0,0 0,0 L 0,0 C 0,0 0,0 0,0 0,0 0,0 0,0 0,0 0,0 0,0 H 0 C 0,0 0,0 0,0 V 0 C 0,0 0,0 0,0 H 0 V 0 C 0,0 0,0 0,0 H 0 C 0,0 0,0 0,0 V 0 H 0 C 0,0 0,0 0,0 0,0 0,0 0,0 0,0 0,0 0,0 0,0 0,0 0,0 0,0 0,0 0,0 0,0 0,0 0,0 0,0 0,0 0,0 0,0 0,0 0,0 0,0 0,0 0,0 0,0 0,0 0,0 0,0 0,0 0,0 Z M 0,0 C 0,0 0,0 0,0 0,0 0,0 0,0 0,0 0,0 0,0 0,0 0,0 0,0 H 0 C 0,0 0,0 0,0 0,0 0,0 0,0 0,0 0,0 0,0 0,0 0,0 0,0 Z"
       id="text17"
       clip-path="url(#clipPath18)"
       transform="matrix(0.95999996,0,0,0.95999996,1034.88,273.59999)"
       aria-label="結果確認（即座）" />
    <path
       id="path19"
       d="m 421.5,235.5 v -22 h 86 V 202 l 21,22.5 -21,22.5 v -11.5 z"
       style="fill:#6c8ebf;fill-opacity:1;fill-rule:nonzero;stroke:#6c8ebf;stroke-width:3;stroke-linecap:butt;stroke-linejoin:miter;stroke-miterlimit:10;stroke-dasharray:none;stroke-opacity:1"
       transform="matrix(0.95999996,0,0,0.95999996,0.47999998,0.47999998)"
       clip-path="url(#clipPath20)" />
    <path
       id="path21"
       d="m 871.5,235.5 v -22 h 86 V 202 l 21,22.5 -21,22.5 v -11.5 z"
       style="fill:#82b366;fill-opacity:1;fill-rule:nonzero;stroke:#82b366;stroke-width:3;stroke-linecap:butt;stroke-linejoin:miter;stroke-miterlimit:10;stroke-dasharray:none;stroke-opacity:1"
       transform="matrix(0.95999996,0,0,0.95999996,0.47999998,0.47999998)"
       clip-path="url(#clipPath22)" />
    <path
       id="path23"
       d="M 700,450 800,525 700,600 600,525 Z"
       style="fill:#f8cecc;fill-opacity:1;fill-rule:nonzero;stroke:#b85450;stroke-width:3;stroke-linecap:butt;stroke-linejoin:miter;stroke-miterlimit:10;stroke-dasharray:none;stroke-opacity:1"
       transform="matrix(0.95999996,0,0,0.95999996,0.47999998,0.47999998)"
       clip-path="url(#clipPath24)" />
    <g
       id="g24" />
    <path
       style="font-weight:600;font-size:1e-32px;"
       d="M 0,0 H 0 C 0,0 0,0 0,0 V 0 C 0,0 0,0 0,0 H 0 C 0,0 0,0 0,0 V 0 C 0,0 0,0 0,0 H 0 V 0 H 0 C 0,0 0,0 0,0 V 0 C 0,0 0,0 0,0 H 0 C 0,0 0,0 0,0 V 0 C 0,0 0,0 0,0 H 0 Z M 0,0 C 0,0 0,0 0,0 H 0 C 0,0 0,0 0,0 V 0 C 0,0 0,0 0,0 H 0 C 0,0 0,0 0,0 Z M 0,0 C 0,0 0,0 0,0 H 0 C 0,0 0,0 0,0 V 0 C 0,0 0,0 0,0 H 0 C 0,0 0,0 0,0 0,0 0,0 0,0 0,0 0,0 0,0 0,0 0,0 0,0 0,0 0,0 0,0 0,0 0,0 0,0 Z M 0,0 C 0,0 0,0 0,0 H 0 C 0,0 0,0 0,0 V 0 C 0,0 0,0 0,0 H 0 C 0,0 0,0 0,0 Z M 0,0 C 0,0 0,0 0,0 H 0 C 0,0 0,0 0,0 V 0 C 0,0 0,0 0,0 H 0 C 0,0 0,0 0,0 0,0 0,0 0,0 0,0 0,0 0,0 0,0 0,0 0,0 0,0 0,0 0,0 H 0 V 0 C 0,0 0,0 0,0 0,0 0,0 0,0 0,0 0,0 0,0 0,0 0,0 0,0 0,0 0,0 0,0 0,0 0,0 0,0 0,0 0,0 0,0 V 0 H 0 C 0,0 0,0 0,0 V 0 C 0,0 0,0 0,0 H 0 V 0 C 0,0 0,0 0,0 V 0 C 0,0 0,0 0,0 0,0 0,0 0,0 0,0 0,0 0,0 0,0 0,0 0,0 0,0 0,0 0,0 L 0,0 C 0,0 0,0 0,0 0,0 0,0 0,0 0,0 0,0 0,0 0,0 0,0 0,0 L 0,0 C 0,0 0,0 0,0 0,0 0,0 0,0 0,0 0,0 0,0 0,0 0,0 0,0 0,0 0,0 0,0 H 0 C 0,0 0,0 0,0 V 0 C 0,0 0,0 0,0 L 0,0 C 0,0 0,0 0,0 0,0 0,0 0,0 0,0 0,0 0,0 0,0 0,0 0,0 V 0 C 0,0 0,0 0,0 Z M 0,0 H 0 V 0 H 0 C 0,0 0,0 0,0 Z M 0,0 C 0,0 0,0 0,0 0,0 0,0 0,0 0,0 0,0 0,0 Z M 0,0 C 0,0 0,0 0,0 0,0 0,0 0,0 0,0 0,0 0,0 0,0 0,0 0,0 Z M 0,0 V 0 H 0 C 0,0 0,0 0,0 V 0 C 0,0 0,0 0,0 H 0 V 0 H 0 C 0,0 0,0 0,0 V 0 C 0,0 0,0 0,0 H 0 C 0,0 0,0 0,0 V 0 C 0,0 0,0 0,0 H 0 V 0 H 0 C 0,0 0,0 0,0 V 0 C 0,0 0,0 0,0 H 0 V 0 H 0 C 0,0 0,0 0,0 V 0 C 0,0 0,0 0,0 H 0 V 0 C 0,0 0,0 0,0 H 0 C 0,0 0,0 0,0 V 0 H 0 C 0,0 0,0 0,0 0,0 0,0 0,0 0,0 0,0 0,0 L 0,0 C 0,0 0,0 0,0 0,0 0,0 0,0 0,0 0,0 0,0 0,0 0,0 0,0 Z M 0,0 C 0,0 0,0 0,0 0,0 0,0 0,0 0,0 0,0 0,0 0,0 0,0 0,0 0,0 0,0 0,0 0,0 0,0 0,0 0,0 0,0 0,0 0,0 0,0 0,0 L 0,0 C 0,0 0,0 0,0 0,0 0,0 0,0 0,0 0,0 0,0 0,0 0,0 0,0 0,0 0,0 0,0 0,0 0,0 0,0 L 0,0 C 0,0 0,0 0,0 Z M 0,0 V 0 H 0 V 0 Z"
       id="text24"
       clip-path="url(#clipPath25)"
       transform="matrix(0.95999996,0,0,0.95999996,620.15997,510.71998)"
       aria-label="エラー発⽣？" />
    <path
       id="path26"
       d="m 122.5,450 h 255 c 0.73691,3e-5 1.47205,0.0362 2.20541,0.1084 0.73337,0.0722 1.4614,0.18017 2.18412,0.32391 0.72274,0.14377 1.4367,0.3226 2.14184,0.5365 0.70517,0.21393 1.39816,0.46188 2.07895,0.74387 0.68082,0.28201 1.34619,0.59671 1.99606,0.94409 0.64991,0.34738 1.28119,0.72577 1.89389,1.13513 0.61274,0.40942 1.20392,0.84787 1.77356,1.31537 0.56965,0.4675 1.11499,0.96176 1.63605,1.48282 0.52109,0.52109 1.01538,1.06647 1.48285,1.63608 0.4675,0.56961 0.90592,1.16076 1.31531,1.77346 0.40939,0.61271 0.78778,1.24402 1.13516,1.89396 0.34738,0.64987 0.66205,1.31521 0.94403,1.996 0.28201,0.68081 0.53,1.37381 0.7439,2.07901 0.2139,0.70517 0.39273,1.4191 0.53647,2.14184 0.1438,0.72275 0.25183,1.45081 0.32406,2.18418 C 399.9639,471.02798 400,471.76312 400,472.5 v 105 c 0,0.73694 -0.0361,1.47205 -0.10834,2.20538 -0.0722,0.73334 -0.18026,1.46137 -0.32403,2.18409 -0.14374,0.72271 -0.32257,1.4367 -0.53647,2.1419 -0.21393,0.70514 -0.46192,1.39813 -0.74393,2.07892 -0.28198,0.68085 -0.59665,1.34619 -0.94403,1.99603 -0.34738,0.64991 -0.72577,1.28119 -1.13516,1.89392 -0.40939,0.61274 -0.84781,1.20392 -1.31531,1.77356 -0.46747,0.56964 -0.96176,1.11499 -1.48285,1.63605 -0.52106,0.52106 -1.0664,1.01532 -1.63608,1.48279 -0.56961,0.46747 -1.16079,0.90594 -1.77353,1.31531 -0.6127,0.40942 -1.24398,0.78784 -1.89386,1.13519 -0.6499,0.34735 -1.31527,0.66205 -1.99609,0.94403 -0.68079,0.28204 -1.37378,0.52997 -2.07895,0.7439 -0.70517,0.21393 -1.41913,0.39276 -2.14187,0.5365 -0.72272,0.14379 -1.45075,0.25183 -2.18409,0.32403 C 378.97205,599.96387 378.23691,600 377.5,600 h -255 c -0.7369,0 -1.47202,-0.0361 -2.20538,-0.1084 -0.73336,-0.0722 -1.46141,-0.18024 -2.18416,-0.32403 -0.72274,-0.14374 -1.4367,-0.32257 -2.14186,-0.5365 -0.70518,-0.21393 -1.39817,-0.46186 -2.07899,-0.7439 -0.68081,-0.28198 -1.34615,-0.59662 -1.99604,-0.94397 -0.64989,-0.34741 -1.2812,-0.72583 -1.89391,-1.13525 -0.61271,-0.40937 -1.20388,-0.84784 -1.77352,-1.31531 -0.56963,-0.46747 -1.11498,-0.96173 -1.63605,-1.48279 -0.52107,-0.52106 -1.01535,-1.06641 -1.48284,-1.63605 -0.46748,-0.56964 -0.90593,-1.16082 -1.31533,-1.77356 -0.40941,-0.61273 -0.78778,-1.24401 -1.13516,-1.89392 -0.34737,-0.64984 -0.66206,-1.31518 -0.94407,-1.99603 -0.28199,-0.68079 -0.52995,-1.37378 -0.74386,-2.07892 -0.21391,-0.7052 -0.39275,-1.41919 -0.53651,-2.1419 -0.14376,-0.72272 -0.25175,-1.45075 -0.32398,-2.18409 C 100.03611,578.97205 100,578.23694 100,577.5 v -105 c 0,-0.73688 0.0361,-1.47198 0.10834,-2.20535 0.0722,-0.73337 0.18023,-1.46146 0.32399,-2.18421 0.14376,-0.72274 0.32259,-1.43667 0.5365,-2.14184 0.21391,-0.7052 0.46187,-1.3982 0.74386,-2.07901 0.28201,-0.68079 0.5967,-1.34613 0.94407,-1.99604 0.34738,-0.6499 0.72575,-1.28121 1.13516,-1.89392 0.4094,-0.6127 0.84785,-1.20385 1.31533,-1.77349 0.46749,-0.56962 0.96177,-1.11496 1.48284,-1.63605 0.52107,-0.52106 1.06642,-1.01532 1.63605,-1.48282 0.56964,-0.4675 1.16081,-0.90595 1.77352,-1.31537 0.61271,-0.40936 1.24402,-0.78775 1.89391,-1.13513 0.64989,-0.34738 1.31523,-0.66208 1.99604,-0.94409 0.68082,-0.28199 1.37381,-0.52994 2.07899,-0.74384 0.70516,-0.21393 1.41912,-0.39276 2.14186,-0.53653 0.72275,-0.14374 1.4508,-0.25171 2.18416,-0.32391 0.73336,-0.0722 1.46848,-0.10837 2.20538,-0.1084 z"
       style="fill:#ffcccc;fill-opacity:1;fill-rule:nonzero;stroke:#cc0000;stroke-width:3;stroke-linecap:butt;stroke-linejoin:miter;stroke-miterlimit:10;stroke-dasharray:none;stroke-opacity:1"
       transform="matrix(0.95999996,0,0,0.95999996,0.47999998,0.47999998)"
       clip-path="url(#clipPath27)" />
    <text
       id="text27"
       xml:space="preserve"
       transform="matrix(0.95999996,0,0,0.95999996,211.19999,500.15998)"
       clip-path="url(#clipPath28)"><tspan
         id="tspan27"
         style="font-variant:normal;font-weight:normal;font-stretch:normal;font-size:1e-32px;writing-mode:lr-tb;fill:#000000;fill-opacity:1;fill-rule:nonzero;stroke:none"
         x="0"
         y="0">🔧</tspan></text>
    <path
       style="font-weight:600;font-size:1e-32px;"
       d="M 0,0 C 0,0 0,0 0,0 V 0 C 0,0 0,0 0,0 0,0 0,0 0,0 H 0 C 0,0 0,0 0,0 0,0 0,0 0,0 V 0 C 0,0 0,0 0,0 H 0 V 0 H 0 V 0 H 0 C 0,0 0,0 0,0 0,0 0,0 0,0 0,0 0,0 0,0 0,0 0,0 0,0 0,0 0,0 0,0 0,0 0,0 0,0 0,0 0,0 0,0 Z M 0,0 H 0 V 0 H 0 Z M 0,0 C 0,0 0,0 0,0 0,0 0,0 0,0 0,0 0,0 0,0 H 0 C 0,0 0,0 0,0 V 0 C 0,0 0,0 0,0 H 0 V 0 C 0,0 0,0 0,0 H 0 C 0,0 0,0 0,0 V 0 H 0 C 0,0 0,0 0,0 V 0 C 0,0 0,0 0,0 H 0 C 0,0 0,0 0,0 0,0 0,0 0,0 L 0,0 C 0,0 0,0 0,0 0,0 0,0 0,0 0,0 0,0 0,0 0,0 0,0 0,0 0,0 0,0 0,0 0,0 0,0 0,0 Z M 0,0 C 0,0 0,0 0,0 H 0 C 0,0 0,0 0,0 V 0 C 0,0 0,0 0,0 H 0 C 0,0 0,0 0,0 Z M 0,0 C 0,0 0,0 0,0 H 0 C 0,0 0,0 0,0 V 0 C 0,0 0,0 0,0 H 0 C 0,0 0,0 0,0 Z M 0,0 C 0,0 0,0 0,0 H 0 C 0,0 0,0 0,0 V 0 C 0,0 0,0 0,0 H 0 C 0,0 0,0 0,0 Z M 0,0 C 0,0 0,0 0,0 H 0 C 0,0 0,0 0,0 V 0 C 0,0 0,0 0,0 H 0 C 0,0 0,0 0,0 Z M 0,0 H 0 C 0,0 0,0 0,0 V 0 C 0,0 0,0 0,0 H 0 V 0 H 0 C 0,0 0,0 0,0 V 0 C 0,0 0,0 0,0 H 0 V 0 H 0 C 0,0 0,0 0,0 V 0 C 0,0 0,0 0,0 H 0 V 0 H 0 C 0,0 0,0 0,0 V 0 C 0,0 0,0 0,0 0,0 0,0 0,0 H 0 V 0 C 0,0 0,0 0,0 H 0 C 0,0 0,0 0,0 Z M 0,0 C 0,0 0,0 0,0 L 0,0 C 0,0 0,0 0,0 Z M 0,0 C 0,0 0,0 0,0 L 0,0 C 0,0 0,0 0,0 Z M 0,0 C 0,0 0,0 0,0 L 0,0 V 0 C 0,0 0,0 0,0 H 0 C 0,0 0,0 0,0 V 0 L 0,0 C 0,0 0,0 0,0 0,0 0,0 0,0 L 0,0 C 0,0 0,0 0,0 L 0,0 V 0 C 0,0 0,0 0,0 0,0 0,0 0,0 0,0 0,0 0,0 0,0 0,0 0,0 0,0 0,0 0,0 L 0,0 C 0,0 0,0 0,0 0,0 0,0 0,0 0,0 0,0 0,0 V 0 C 0,0 0,0 0,0 0,0 0,0 0,0 0,0 0,0 0,0 0,0 0,0 0,0 0,0 0,0 0,0 0,0 0,0 0,0 0,0 0,0 0,0 Z M 0,0 C 0,0 0,0 0,0 0,0 0,0 0,0 0,0 0,0 0,0 0,0 0,0 0,0 0,0 0,0 0,0 0,0 0,0 0,0 0,0 0,0 0,0 Z M 0,0 C 0,0 0,0 0,0 V 0 L 0,0 C 0,0 0,0 0,0 L 0,0 C 0,0 0,0 0,0 0,0 0,0 0,0 0,0 0,0 0,0 0,0 0,0 0,0 0,0 0,0 0,0 0,0 0,0 0,0 L 0,0 C 0,0 0,0 0,0 Z M 0,0 C 0,0 0,0 0,0 0,0 0,0 0,0 0,0 0,0 0,0 0,0 0,0 0,0 0,0 0,0 0,0 0,0 0,0 0,0 0,0 0,0 0,0 0,0 0,0 0,0 0,0 0,0 0,0 0,0 0,0 0,0 0,0 0,0 0,0 0,0 0,0 0,0 0,0 0,0 0,0 Z M 0,0 C 0,0 0,0 0,0 0,0 0,0 0,0 0,0 0,0 0,0 0,0 0,0 0,0 0,0 0,0 0,0 Z M 0,0 C 0,0 0,0 0,0 0,0 0,0 0,0 0,0 0,0 0,0 0,0 0,0 0,0 0,0 0,0 0,0 0,0 0,0 0,0 0,0 0,0 0,0 0,0 0,0 0,0 0,0 0,0 0,0 0,0 0,0 0,0 0,0 0,0 0,0 0,0 0,0 0,0 0,0 0,0 0,0 0,0 0,0 0,0 0,0 0,0 0,0 L 0,0 C 0,0 0,0 0,0 0,0 0,0 0,0 0,0 0,0 0,0 0,0 0,0 0,0 L 0,0 C 0,0 0,0 0,0 0,0 0,0 0,0 0,0 0,0 0,0 0,0 0,0 0,0 0,0 0,0 0,0 L 0,0 C 0,0 0,0 0,0 0,0 0,0 0,0 0,0 0,0 0,0 Z M 0,0 C 0,0 0,0 0,0 0,0 0,0 0,0 0,0 0,0 0,0 0,0 0,0 0,0 0,0 0,0 0,0 Z M 0,0 C 0,0 0,0 0,0 H 0 C 0,0 0,0 0,0 L 0,0 C 0,0 0,0 0,0 0,0 0,0 0,0 H 0 C 0,0 0,0 0,0 V 0 C 0,0 0,0 0,0 H 0 C 0,0 0,0 0,0 V 0 C 0,0 0,0 0,0 0,0 0,0 0,0 0,0 0,0 0,0 0,0 0,0 0,0 0,0 0,0 0,0 0,0 0,0 0,0 0,0 0,0 0,0 0,0 0,0 0,0 0,0 0,0 0,0 0,0 0,0 0,0 0,0 0,0 0,0 Z M 0,0 C 0,0 0,0 0,0 0,0 0,0 0,0 Z M 0,0 C 0,0 0,0 0,0 H 0 C 0,0 0,0 0,0 V 0 C 0,0 0,0 0,0 0,0 0,0 0,0 L 0,0 C 0,0 0,0 0,0 0,0 0,0 0,0 0,0 0,0 0,0 0,0 0,0 0,0 Z M 0,0 C 0,0 0,0 0,0 0,0 0,0 0,0 0,0 0,0 0,0 0,0 0,0 0,0 Z M 0,0 C 0,0 0,0 0,0 0,0 0,0 0,0 0,0 0,0 0,0 Z M 0,0 C 0,0 0,0 0,0 0,0 0,0 0,0 0,0 0,0 0,0 0,0 0,0 0,0 0,0 0,0 0,0 Z M 0,0 H 0 V 0 C 0,0 0,0 0,0 H 0 C 0,0 0,0 0,0 V 0 H 0 C 0,0 0,0 0,0 V 0 C 0,0 0,0 0,0 H 0 C 0,0 0,0 0,0 V 0 C 0,0 0,0 0,0 H 0 V 0 H 0 C 0,0 0,0 0,0 V 0 C 0,0 0,0 0,0 H 0 V 0 H 0 C 0,0 0,0 0,0 V 0 C 0,0 0,0 0,0 H 0 C 0,0 0,0 0,0 V 0 C 0,0 0,0 0,0 H 0 Z"
       id="text28"
       clip-path="url(#clipPath29)"
       transform="matrix(0.95999996,0,0,0.95999996,178.55999,532.79998)"
       aria-label="該当セルのみ修正" />
    <path
       style="font-weight:600;font-size:1e-32px;"
       d="M 0,0 C 0,0 0,0 0,0 0,0 0,0 0,0 0,0 0,0 0,0 0,0 0,0 0,0 0,0 0,0 0,0 H 0 V 0 C 0,0 0,0 0,0 0,0 0,0 0,0 0,0 0,0 0,0 0,0 0,0 0,0 0,0 0,0 0,0 V 0 H 0 C 0,0 0,0 0,0 V 0 C 0,0 0,0 0,0 H 0 V 0 C 0,0 0,0 0,0 H 0 C 0,0 0,0 0,0 V 0 H 0 C 0,0 0,0 0,0 V 0 C 0,0 0,0 0,0 Z M 0,0 C 0,0 0,0 0,0 H 0 C 0,0 0,0 0,0 0,0 0,0 0,0 0,0 0,0 0,0 L 0,0 C 0,0 0,0 0,0 0,0 0,0 0,0 0,0 0,0 0,0 0,0 0,0 0,0 0,0 0,0 0,0 0,0 0,0 0,0 0,0 0,0 0,0 0,0 0,0 0,0 0,0 0,0 0,0 0,0 0,0 0,0 0,0 0,0 0,0 0,0 0,0 0,0 0,0 0,0 0,0 0,0 0,0 0,0 Z M 0,0 C 0,0 0,0 0,0 0,0 0,0 0,0 Z M 0,0 C 0,0 0,0 0,0 0,0 0,0 0,0 0,0 0,0 0,0 L 0,0 C 0,0 0,0 0,0 0,0 0,0 0,0 0,0 0,0 0,0 0,0 0,0 0,0 Z M 0,0 C 0,0 0,0 0,0 L 0,0 C 0,0 0,0 0,0 Z M 0,0 C 0,0 0,0 0,0 H 0 C 0,0 0,0 0,0 0,0 0,0 0,0 L 0,0 C 0,0 0,0 0,0 0,0 0,0 0,0 0,0 0,0 0,0 0,0 0,0 0,0 0,0 0,0 0,0 0,0 0,0 0,0 0,0 0,0 0,0 0,0 0,0 0,0 0,0 0,0 0,0 0,0 0,0 0,0 0,0 0,0 0,0 0,0 0,0 0,0 0,0 0,0 0,0 0,0 0,0 0,0 Z M 0,0 C 0,0 0,0 0,0 0,0 0,0 0,0 0,0 0,0 0,0 Z M 0,0 C 0,0 0,0 0,0 0,0 0,0 0,0 0,0 0,0 0,0 V 0 C 0,0 0,0 0,0 H 0 C 0,0 0,0 0,0 L 0,0 C 0,0 0,0 0,0 H 0 C 0,0 0,0 0,0 V 0 C 0,0 0,0 0,0 H 0 C 0,0 0,0 0,0 0,0 0,0 0,0 0,0 0,0 0,0 0,0 0,0 0,0 0,0 0,0 0,0 0,0 0,0 0,0 Z M 0,0 C 0,0 0,0 0,0 0,0 0,0 0,0 0,0 0,0 0,0 Z M 0,0 V 0 C 0,0 0,0 0,0 H 0 C 0,0 0,0 0,0 V 0 H 0 C 0,0 0,0 0,0 V 0 C 0,0 0,0 0,0 H 0 C 0,0 0,0 0,0 0,0 0,0 0,0 0,0 0,0 0,0 0,0 0,0 0,0 V 0 C 0,0 0,0 0,0 H 0 C 0,0 0,0 0,0 V 0 C 0,0 0,0 0,0 0,0 0,0 0,0 0,0 0,0 0,0 0,0 0,0 0,0 H 0 C 0,0 0,0 0,0 V 0 C 0,0 0,0 0,0 Z M 0,0 C 0,0 0,0 0,0 L 0,0 C 0,0 0,0 0,0 Z M 0,0 C 0,0 0,0 0,0 L 0,0 C 0,0 0,0 0,0 Z M 0,0 C 0,0 0,0 0,0 V 0 C 0,0 0,0 0,0 H 0 L 0,0 C 0,0 0,0 0,0 0,0 0,0 0,0 0,0 0,0 0,0 H 0 C 0,0 0,0 0,0 0,0 0,0 0,0 H 0 C 0,0 0,0 0,0 V 0 C 0,0 0,0 0,0 H 0 C 0,0 0,0 0,0 0,0 0,0 0,0 0,0 0,0 0,0 0,0 0,0 0,0 0,0 0,0 0,0 0,0 0,0 0,0 0,0 0,0 0,0 0,0 0,0 0,0 0,0 0,0 0,0 0,0 0,0 0,0 0,0 0,0 0,0 Z M 0,0 C 0,0 0,0 0,0 L 0,0 C 0,0 0,0 0,0 0,0 0,0 0,0 V 0 C 0,0 0,0 0,0 H 0 C 0,0 0,0 0,0 V 0 C 0,0 0,0 0,0 H 0 C 0,0 0,0 0,0 Z M 0,0 C 0,0 0,0 0,0 L 0,0 C 0,0 0,0 0,0 Z M 0,0 C 0,0 0,0 0,0 L 0,0 C 0,0 0,0 0,0 Z M 0,0 H 0 C 0,0 0,0 0,0 L 0,0 C 0,0 0,0 0,0 0,0 0,0 0,0 0,0 0,0 0,0 L 0,0 V 0 C 0,0 0,0 0,0 0,0 0,0 0,0 0,0 0,0 0,0 0,0 0,0 0,0 0,0 0,0 0,0 0,0 0,0 0,0 0,0 0,0 0,0 0,0 0,0 0,0 V 0 C 0,0 0,0 0,0 0,0 0,0 0,0 L 0,0 C 0,0 0,0 0,0 0,0 0,0 0,0 V 0 C 0,0 0,0 0,0 H 0 C 0,0 0,0 0,0 V 0 C 0,0 0,0 0,0 L 0,0 C 0,0 0,0 0,0 0,0 0,0 0,0 0,0 0,0 0,0 L 0,0 C 0,0 0,0 0,0 Z M 0,0 H 0 V 0 C 0,0 0,0 0,0 0,0 0,0 0,0 0,0 0,0 0,0 0,0 0,0 0,0 0,0 0,0 0,0 0,0 0,0 0,0 V 0 C 0,0 0,0 0,0 0,0 0,0 0,0 H 0 C 0,0 0,0 0,0 0,0 0,0 0,0 V 0 C 0,0 0,0 0,0 H 0 C 0,0 0,0 0,0 Z M 0,0 V 0 H 0 V 0 Z M 0,0 V 0 H 0 V 0 Z M 0,0 C 0,0 0,0 0,0 V 0 C 0,0 0,0 0,0 0,0 0,0 0,0 0,0 0,0 0,0 0,0 0,0 0,0 0,0 0,0 0,0 0,0 0,0 0,0 0,0 0,0 0,0 V 0 C 0,0 0,0 0,0 0,0 0,0 0,0 L 0,0 C 0,0 0,0 0,0 0,0 0,0 0,0 Z M 0,0 C 0,0 0,0 0,0 L 0,0 C 0,0 0,0 0,0 Z M 0,0 C 0,0 0,0 0,0 V 0 C 0,0 0,0 0,0 0,0 0,0 0,0 0,0 0,0 0,0 0,0 0,0 0,0 0,0 0,0 0,0 0,0 0,0 0,0 0,0 0,0 0,0 V 0 C 0,0 0,0 0,0 Z M 0,0 C 0,0 0,0 0,0 L 0,0 C 0,0 0,0 0,0 Z M 0,0 C 0,0 0,0 0,0 L 0,0 C 0,0 0,0 0,0 Z M 0,0 C 0,0 0,0 0,0 0,0 0,0 0,0 0,0 0,0 0,0 0,0 0,0 0,0 0,0 0,0 0,0 0,0 0,0 0,0 0,0 0,0 0,0 0,0 0,0 0,0 0,0 0,0 0,0 0,0 0,0 0,0 0,0 0,0 0,0 0,0 0,0 0,0 0,0 0,0 0,0 0,0 0,0 0,0 0,0 0,0 0,0 L 0,0 C 0,0 0,0 0,0 0,0 0,0 0,0 0,0 0,0 0,0 0,0 0,0 0,0 0,0 0,0 0,0 0,0 0,0 0,0 L 0,0 0,0 C 0,0 0,0 0,0 0,0 0,0 0,0 0,0 0,0 0,0 0,0 0,0 0,0 L 0,0 C 0,0 0,0 0,0 0,0 0,0 0,0 0,0 0,0 0,0 0,0 0,0 0,0 Z M 0,0 C 0,0 0,0 0,0 0,0 0,0 0,0 0,0 0,0 0,0 0,0 0,0 0,0 0,0 0,0 0,0 0,0 0,0 0,0 Z M 0,0 C 0,0 0,0 0,0 0,0 0,0 0,0 L 0,0 C 0,0 0,0 0,0 0,0 0,0 0,0 0,0 0,0 0,0 0,0 0,0 0,0 H 0 C 0,0 0,0 0,0 0,0 0,0 0,0 0,0 0,0 0,0 0,0 0,0 0,0 L 0,0 C 0,0 0,0 0,0 0,0 0,0 0,0 0,0 0,0 0,0 0,0 0,0 0,0 0,0 0,0 0,0 0,0 0,0 0,0 Z M 0,0 H 0 C 0,0 0,0 0,0 V 0 C 0,0 0,0 0,0 H 0 C 0,0 0,0 0,0 0,0 0,0 0,0 0,0 0,0 0,0 0,0 0,0 0,0 0,0 0,0 0,0 0,0 0,0 0,0 V 0 C 0,0 0,0 0,0 H 0 C 0,0 0,0 0,0 V 0 C 0,0 0,0 0,0 0,0 0,0 0,0 0,0 0,0 0,0 0,0 0,0 0,0 0,0 0,0 0,0 0,0 0,0 0,0 H 0 C 0,0 0,0 0,0 V 0 C 0,0 0,0 0,0 H 0 V 0 H 0 C 0,0 0,0 0,0 0,0 0,0 0,0 0,0 0,0 0,0 0,0 0,0 0,0 V 0 C 0,0 0,0 0,0 0,0 0,0 0,0 H 0 C 0,0 0,0 0,0 0,0 0,0 0,0 V 0 C 0,0 0,0 0,0 0,0 0,0 0,0 H 0 Z M 0,0 H 0 V 0 H 0 Z M 0,0 C 0,0 0,0 0,0 H 0 C 0,0 0,0 0,0 V 0 C 0,0 0,0 0,0 0,0 0,0 0,0 L 0,0 C 0,0 0,0 0,0 0,0 0,0 0,0 0,0 0,0 0,0 0,0 0,0 0,0 0,0 0,0 0,0 Z M 0,0 C 0,0 0,0 0,0 V 0 C 0,0 0,0 0,0 H 0 V 0 H 0 C 0,0 0,0 0,0 V 0 C 0,0 0,0 0,0 H 0 V 0 C 0,0 0,0 0,0 H 0 C 0,0 0,0 0,0 V 0 H 0 C 0,0 0,0 0,0 V 0 C 0,0 0,0 0,0 H 0 V 0 H 0 C 0,0 0,0 0,0 V 0 L 0,0 C 0,0 0,0 0,0 V 0 H 0 C 0,0 0,0 0,0 V 0 C 0,0 0,0 0,0 H 0 V 0 C 0,0 0,0 0,0 H 0 C 0,0 0,0 0,0 V 0 H 0 C 0,0 0,0 0,0 V 0 C 0,0 0,0 0,0 H 0 V 0 C 0,0 0,0 0,0 L 0,0 C 0,0 0,0 0,0 0,0 0,0 0,0 V 0 C 0,0 0,0 0,0 0,0 0,0 0,0 0,0 0,0 0,0 0,0 0,0 0,0 0,0 0,0 0,0 V 0 C 0,0 0,0 0,0 V 0 C 0,0 0,0 0,0 H 0 V 0 C 0,0 0,0 0,0 0,0 0,0 0,0 0,0 0,0 0,0 0,0 0,0 0,0 0,0 0,0 0,0 0,0 0,0 0,0 V 0 H 0 C 0,0 0,0 0,0 V 0 C 0,0 0,0 0,0 H 0 Z M 0,0 V 0 H 0 C 0,0 0,0 0,0 V 0 C 0,0 0,0 0,0 Z M 0,0 C 0,0 0,0 0,0 L 0,0 C 0,0 0,0 0,0 Z"
       id="text29"
       clip-path="url(#clipPath30)"
       transform="matrix(0.95999996,0,0,0.95999996,186.23999,551.99998)"
       aria-label="変数状態は保持" />
    <path
       id="path31"
       d="m 1022.5,450 h 255 c 0.7369,3e-5 1.4721,0.0362 2.2054,0.1084 0.7333,0.0722 1.4614,0.18017 2.184,0.32391 0.7228,0.14377 1.4368,0.3226 2.142,0.5365 0.7052,0.21393 1.398,0.46188 2.0788,0.74387 0.6808,0.28201 1.3462,0.59671 1.996,0.94409 0.65,0.34738 1.2813,0.72577 1.8939,1.13513 0.6128,0.40942 1.204,0.84787 1.7737,1.31537 0.5697,0.4675 1.115,0.96176 1.636,1.48282 0.5211,0.52109 1.0154,1.06647 1.4828,1.63608 0.4674,0.56961 0.9059,1.16076 1.3153,1.77346 0.4094,0.61271 0.7878,1.24402 1.1352,1.89396 0.3473,0.64987 0.662,1.31521 0.944,1.996 0.2821,0.68081 0.53,1.37381 0.7439,2.07901 0.2139,0.70517 0.3927,1.4191 0.5365,2.14184 0.1439,0.72275 0.252,1.45081 0.3241,2.18418 0.072,0.73336 0.1084,1.4685 0.1084,2.20538 v 105 c 0,0.73694 -0.036,1.47205 -0.1084,2.20538 -0.072,0.73334 -0.1802,1.46137 -0.3241,2.18409 -0.1438,0.72271 -0.3226,1.4367 -0.5365,2.1419 -0.2139,0.70514 -0.4618,1.39813 -0.7439,2.07892 -0.282,0.68085 -0.5967,1.34619 -0.944,1.99603 -0.3474,0.64991 -0.7258,1.28119 -1.1352,1.89392 -0.4094,0.61274 -0.8479,1.20392 -1.3153,1.77356 -0.4674,0.56964 -0.9617,1.11499 -1.4828,1.63605 -0.521,0.52106 -1.0663,1.01532 -1.636,1.48279 -0.5696,0.46747 -1.1608,0.90594 -1.7736,1.31531 -0.6126,0.40942 -1.2438,0.78784 -1.8939,1.13519 -0.6499,0.34735 -1.3153,0.66205 -1.9961,0.94403 -0.6808,0.28204 -1.3737,0.52997 -2.0789,0.7439 -0.7052,0.21393 -1.4191,0.39276 -2.1419,0.5365 -0.7226,0.14379 -1.4507,0.25183 -2.184,0.32403 -0.7333,0.0723 -1.4685,0.1084 -2.2054,0.1084 h -255 c -0.7369,0 -1.4721,-0.0361 -2.2054,-0.1084 -0.7334,-0.0722 -1.4615,-0.18024 -2.1842,-0.32403 -0.7228,-0.14374 -1.4367,-0.32257 -2.1419,-0.5365 -0.7051,-0.21393 -1.3982,-0.46186 -2.079,-0.7439 -0.6808,-0.28198 -1.3462,-0.59662 -1.996,-0.94397 -0.65,-0.34741 -1.2813,-0.72583 -1.894,-1.13525 -0.6127,-0.40937 -1.2038,-0.84784 -1.7734,-1.31531 -0.5697,-0.46747 -1.115,-0.96173 -1.6361,-1.48279 -0.5211,-0.52106 -1.0153,-1.06641 -1.4829,-1.63605 -0.4675,-0.56964 -0.9059,-1.16082 -1.3153,-1.77356 -0.4094,-0.61273 -0.7878,-1.24401 -1.1351,-1.89392 -0.3474,-0.64984 -0.6621,-1.31518 -0.9442,-1.99603 -0.2819,-0.68079 -0.5298,-1.37378 -0.7438,-2.07892 -0.2139,-0.7052 -0.3927,-1.41919 -0.5365,-2.1419 -0.1437,-0.72272 -0.2517,-1.45075 -0.3239,-2.18409 C 1000.0361,578.97205 1000,578.23694 1000,577.5 v -105 c 0,-0.73688 0.036,-1.47198 0.1083,-2.20535 0.072,-0.73337 0.1802,-1.46146 0.3239,-2.18421 0.1437,-0.72274 0.3226,-1.43667 0.5365,-2.14184 0.2139,-0.7052 0.4618,-1.3982 0.7438,-2.07901 0.282,-0.68079 0.5967,-1.34613 0.9441,-1.99604 0.3474,-0.6499 0.7258,-1.28121 1.1352,-1.89392 0.4094,-0.6127 0.8478,-1.20385 1.3153,-1.77349 0.4676,-0.56962 0.9618,-1.11496 1.4829,-1.63605 0.5211,-0.52106 1.0664,-1.01532 1.6361,-1.48282 0.5696,-0.4675 1.1607,-0.90595 1.7734,-1.31537 0.6127,-0.40936 1.244,-0.78775 1.8939,-1.13513 0.6499,-0.34738 1.3153,-0.66208 1.9961,-0.94409 0.6808,-0.28199 1.3739,-0.52994 2.079,-0.74384 0.7052,-0.21393 1.4191,-0.39276 2.1419,-0.53653 0.7227,-0.14374 1.4508,-0.25171 2.1842,-0.32391 0.7333,-0.0722 1.4685,-0.10837 2.2054,-0.1084 z"
       style="fill:#d5e8d4;fill-opacity:1;fill-rule:nonzero;stroke:#82b366;stroke-width:3;stroke-linecap:butt;stroke-linejoin:miter;stroke-miterlimit:10;stroke-dasharray:none;stroke-opacity:1"
       transform="matrix(0.95999996,0,0,0.95999996,0.47999998,0.47999998)"
       clip-path="url(#clipPath32)" />
    <text
       id="text32"
       xml:space="preserve"
       transform="matrix(0.95999996,0,0,0.95999996,1075.2,500.15998)"
       clip-path="url(#clipPath33)"><tspan
         id="tspan32"
         style="font-variant:normal;font-weight:normal;font-stretch:normal;font-size:1e-32px;writing-mode:lr-tb;fill:#000000;fill-opacity:1;fill-rule:nonzero;stroke:none"
         x="0"
         y="0">🎉</tspan></text>
    <path
       style="font-weight:600;font-size:1e-32px;"
       d="M 0,0 C 0,0 0,0 0,0 0,0 0,0 0,0 L 0,0 C 0,0 0,0 0,0 0,0 0,0 0,0 0,0 0,0 0,0 H 0 C 0,0 0,0 0,0 0,0 0,0 0,0 0,0 0,0 0,0 0,0 0,0 0,0 L 0,0 C 0,0 0,0 0,0 Z M 0,0 C 0,0 0,0 0,0 L 0,0 C 0,0 0,0 0,0 Z M 0,0 C 0,0 0,0 0,0 0,0 0,0 0,0 L 0,0 C 0,0 0,0 0,0 0,0 0,0 0,0 Z M 0,0 C 0,0 0,0 0,0 0,0 0,0 0,0 0,0 0,0 0,0 0,0 0,0 0,0 0,0 0,0 0,0 0,0 0,0 0,0 0,0 0,0 0,0 0,0 0,0 0,0 0,0 0,0 0,0 0,0 0,0 0,0 0,0 0,0 0,0 0,0 0,0 0,0 0,0 0,0 0,0 Z M 0,0 C 0,0 0,0 0,0 0,0 0,0 0,0 0,0 0,0 0,0 0,0 0,0 0,0 0,0 0,0 0,0 0,0 0,0 0,0 0,0 0,0 0,0 0,0 0,0 0,0 0,0 0,0 0,0 0,0 0,0 0,0 0,0 0,0 0,0 0,0 0,0 0,0 0,0 0,0 0,0 Z M 0,0 C 0,0 0,0 0,0 0,0 0,0 0,0 0,0 0,0 0,0 0,0 0,0 0,0 0,0 0,0 0,0 Z M 0,0 C 0,0 0,0 0,0 L 0,0 V 0 C 0,0 0,0 0,0 H 0 C 0,0 0,0 0,0 V 0 L 0,0 C 0,0 0,0 0,0 0,0 0,0 0,0 L 0,0 C 0,0 0,0 0,0 L 0,0 V 0 C 0,0 0,0 0,0 0,0 0,0 0,0 0,0 0,0 0,0 0,0 0,0 0,0 0,0 0,0 0,0 L 0,0 C 0,0 0,0 0,0 0,0 0,0 0,0 0,0 0,0 0,0 V 0 C 0,0 0,0 0,0 0,0 0,0 0,0 0,0 0,0 0,0 0,0 0,0 0,0 0,0 0,0 0,0 0,0 0,0 0,0 0,0 0,0 0,0 Z M 0,0 C 0,0 0,0 0,0 0,0 0,0 0,0 0,0 0,0 0,0 0,0 0,0 0,0 0,0 0,0 0,0 0,0 0,0 0,0 0,0 0,0 0,0 Z M 0,0 C 0,0 0,0 0,0 V 0 L 0,0 C 0,0 0,0 0,0 L 0,0 C 0,0 0,0 0,0 0,0 0,0 0,0 0,0 0,0 0,0 0,0 0,0 0,0 0,0 0,0 0,0 0,0 0,0 0,0 L 0,0 C 0,0 0,0 0,0 Z M 0,0 C 0,0 0,0 0,0 0,0 0,0 0,0 0,0 0,0 0,0 0,0 0,0 0,0 0,0 0,0 0,0 0,0 0,0 0,0 0,0 0,0 0,0 L 0,0 C 0,0 0,0 0,0 0,0 0,0 0,0 0,0 0,0 0,0 0,0 0,0 0,0 0,0 0,0 0,0 0,0 0,0 0,0 0,0 0,0 0,0 Z M 0,0 H 0 C 0,0 0,0 0,0 V 0 C 0,0 0,0 0,0 H 0 V 0 H 0 C 0,0 0,0 0,0 V 0 C 0,0 0,0 0,0 H 0 V 0 H 0 C 0,0 0,0 0,0 V 0 C 0,0 0,0 0,0 H 0 C 0,0 0,0 0,0 0,0 0,0 0,0 L 0,0 C 0,0 0,0 0,0 H 0 C 0,0 0,0 0,0 0,0 0,0 0,0 L 0,0 C 0,0 0,0 0,0 0,0 0,0 0,0 0,0 0,0 0,0 0,0 0,0 0,0 0,0 0,0 0,0 V 0 C 0,0 0,0 0,0 0,0 0,0 0,0 H 0 C 0,0 0,0 0,0 V 0 C 0,0 0,0 0,0 H 0 Z M 0,0 V 0 H 0 V 0 Z M 0,0 H 0 V 0 H 0 Z M 0,0 H 0 V 0 H 0 Z M 0,0 C 0,0 0,0 0,0 L 0,0 C 0,0 0,0 0,0 Z M 0,0 C 0,0 0,0 0,0 H 0 V 0 C 0,0 0,0 0,0 L 0,0 C 0,0 0,0 0,0 0,0 0,0 0,0 0,0 0,0 0,0 0,0 0,0 0,0 0,0 0,0 0,0 0,0 0,0 0,0 0,0 0,0 0,0 0,0 0,0 0,0 0,0 0,0 0,0 V 0 C 0,0 0,0 0,0 0,0 0,0 0,0 H 0 C 0,0 0,0 0,0 Z M 0,0 C 0,0 0,0 0,0 0,0 0,0 0,0 0,0 0,0 0,0 0,0 0,0 0,0 L 0,0 C 0,0 0,0 0,0 0,0 0,0 0,0 0,0 0,0 0,0 0,0 0,0 0,0 0,0 0,0 0,0 L 0,0 C 0,0 0,0 0,0 0,0 0,0 0,0 0,0 0,0 0,0 0,0 0,0 0,0 0,0 0,0 0,0 0,0 0,0 0,0 0,0 0,0 0,0 0,0 0,0 0,0 0,0 0,0 0,0 0,0 0,0 0,0 0,0 0,0 0,0 H 0 C 0,0 0,0 0,0 0,0 0,0 0,0 0,0 0,0 0,0 0,0 0,0 0,0 0,0 0,0 0,0 0,0 0,0 0,0 0,0 0,0 0,0 0,0 0,0 0,0 0,0 0,0 0,0 0,0 0,0 0,0 0,0 0,0 0,0 0,0 0,0 0,0 0,0 0,0 0,0 0,0 0,0 0,0 0,0 0,0 0,0 0,0 0,0 0,0 0,0 0,0 0,0 0,0 0,0 0,0 0,0 0,0 0,0 0,0 0,0 0,0 0,0 0,0 0,0 0,0 0,0 0,0 Z M 0,0 C 0,0 0,0 0,0 0,0 0,0 0,0 0,0 0,0 0,0 0,0 0,0 0,0 0,0 0,0 0,0 Z M 0,0 C 0,0 0,0 0,0 L 0,0 C 0,0 0,0 0,0 Z"
       id="text33"
       clip-path="url(#clipPath34)"
       transform="matrix(0.95999996,0,0,0.95999996,1050.24,532.79998)"
       aria-label="次のセルへ進む" />
    <path
       style="font-weight:600;font-size:1e-32px;"
       d="M 0,0 C 0,0 0,0 0,0 0,0 0,0 0,0 0,0 0,0 0,0 0,0 0,0 0,0 0,0 0,0 0,0 0,0 0,0 0,0 L 0,0 C 0,0 0,0 0,0 0,0 0,0 0,0 0,0 0,0 0,0 0,0 0,0 0,0 0,0 0,0 0,0 L 0,0 C 0,0 0,0 0,0 0,0 0,0 0,0 H 0 C 0,0 0,0 0,0 0,0 0,0 0,0 0,0 0,0 0,0 L 0,0 C 0,0 0,0 0,0 0,0 0,0 0,0 0,0 0,0 0,0 0,0 0,0 0,0 0,0 0,0 0,0 0,0 0,0 0,0 0,0 0,0 0,0 L 0,0 C 0,0 0,0 0,0 0,0 0,0 0,0 0,0 0,0 0,0 0,0 0,0 0,0 0,0 0,0 0,0 0,0 0,0 0,0 0,0 0,0 0,0 0,0 0,0 0,0 0,0 0,0 0,0 0,0 0,0 0,0 0,0 0,0 0,0 0,0 0,0 0,0 0,0 0,0 0,0 0,0 0,0 0,0 Z M 0,0 C 0,0 0,0 0,0 0,0 0,0 0,0 0,0 0,0 0,0 0,0 0,0 0,0 0,0 0,0 0,0 0,0 0,0 0,0 Z M 0,0 C 0,0 0,0 0,0 0,0 0,0 0,0 0,0 0,0 0,0 H 0 C 0,0 0,0 0,0 0,0 0,0 0,0 L 0,0 C 0,0 0,0 0,0 0,0 0,0 0,0 0,0 0,0 0,0 0,0 0,0 0,0 L 0,0 C 0,0 0,0 0,0 0,0 0,0 0,0 0,0 0,0 0,0 L 0,0 C 0,0 0,0 0,0 0,0 0,0 0,0 0,0 0,0 0,0 0,0 0,0 0,0 Z M 0,0 C 0,0 0,0 0,0 0,0 0,0 0,0 L 0,0 C 0,0 0,0 0,0 0,0 0,0 0,0 Z M 0,0 C 0,0 0,0 0,0 0,0 0,0 0,0 0,0 0,0 0,0 0,0 0,0 0,0 0,0 0,0 0,0 L 0,0 C 0,0 0,0 0,0 0,0 0,0 0,0 0,0 0,0 0,0 Z M 0,0 C 0,0 0,0 0,0 0,0 0,0 0,0 0,0 0,0 0,0 0,0 0,0 0,0 0,0 0,0 0,0 0,0 0,0 0,0 0,0 0,0 0,0 0,0 0,0 0,0 0,0 0,0 0,0 0,0 0,0 0,0 0,0 0,0 0,0 0,0 0,0 0,0 0,0 0,0 0,0 0,0 0,0 0,0 0,0 0,0 0,0 L 0,0 C 0,0 0,0 0,0 0,0 0,0 0,0 0,0 0,0 0,0 0,0 0,0 0,0 0,0 0,0 0,0 0,0 0,0 0,0 L 0,0 0,0 C 0,0 0,0 0,0 0,0 0,0 0,0 0,0 0,0 0,0 0,0 0,0 0,0 L 0,0 C 0,0 0,0 0,0 0,0 0,0 0,0 0,0 0,0 0,0 0,0 0,0 0,0 Z M 0,0 C 0,0 0,0 0,0 0,0 0,0 0,0 0,0 0,0 0,0 0,0 0,0 0,0 0,0 0,0 0,0 0,0 0,0 0,0 Z M 0,0 C 0,0 0,0 0,0 0,0 0,0 0,0 L 0,0 C 0,0 0,0 0,0 0,0 0,0 0,0 0,0 0,0 0,0 0,0 0,0 0,0 H 0 C 0,0 0,0 0,0 0,0 0,0 0,0 0,0 0,0 0,0 0,0 0,0 0,0 L 0,0 C 0,0 0,0 0,0 0,0 0,0 0,0 0,0 0,0 0,0 0,0 0,0 0,0 0,0 0,0 0,0 0,0 0,0 0,0 Z M 0,0 V 0 C 0,0 0,0 0,0 0,0 0,0 0,0 0,0 0,0 0,0 0,0 0,0 0,0 0,0 0,0 0,0 V 0 C 0,0 0,0 0,0 V 0 C 0,0 0,0 0,0 H 0 C 0,0 0,0 0,0 V 0 C 0,0 0,0 0,0 Z M 0,0 C 0,0 0,0 0,0 0,0 0,0 0,0 H 0 C 0,0 0,0 0,0 0,0 0,0 0,0 V 0 C 0,0 0,0 0,0 H 0 V 0 H 0 C 0,0 0,0 0,0 0,0 0,0 0,0 0,0 0,0 0,0 0,0 0,0 0,0 Z M 0,0 H 0 V 0 H 0 Z M 0,0 C 0,0 0,0 0,0 0,0 0,0 0,0 0,0 0,0 0,0 0,0 0,0 0,0 0,0 0,0 0,0 H 0 V 0 C 0,0 0,0 0,0 0,0 0,0 0,0 0,0 0,0 0,0 0,0 0,0 0,0 0,0 0,0 0,0 0,0 0,0 0,0 0,0 0,0 0,0 V 0 H 0 C 0,0 0,0 0,0 0,0 0,0 0,0 V 0 C 0,0 0,0 0,0 0,0 0,0 0,0 H 0 C 0,0 0,0 0,0 0,0 0,0 0,0 V 0 C 0,0 0,0 0,0 0,0 0,0 0,0 Z M 0,0 H 0 V 0 H 0 Z M 0,0 H 0 V 0 H 0 Z M 0,0 H 0 V 0 H 0 Z M 0,0 C 0,0 0,0 0,0 0,0 0,0 0,0 0,0 0,0 0,0 0,0 0,0 0,0 0,0 0,0 0,0 L 0,0 C 0,0 0,0 0,0 H 0 V 0 C 0,0 0,0 0,0 H 0 C 0,0 0,0 0,0 V 0 H 0 C 0,0 0,0 0,0 V 0 C 0,0 0,0 0,0 H 0 C 0,0 0,0 0,0 0,0 0,0 0,0 0,0 0,0 0,0 0,0 0,0 0,0 V 0 C 0,0 0,0 0,0 H 0 C 0,0 0,0 0,0 Z M 0,0 C 0,0 0,0 0,0 0,0 0,0 0,0 L 0,0 C 0,0 0,0 0,0 V 0 C 0,0 0,0 0,0 H 0 C 0,0 0,0 0,0 V 0 C 0,0 0,0 0,0 0,0 0,0 0,0 0,0 0,0 0,0 0,0 0,0 0,0 0,0 0,0 0,0 0,0 0,0 0,0 0,0 0,0 0,0 Z M 0,0 C 0,0 0,0 0,0 H 0 C 0,0 0,0 0,0 V 0 C 0,0 0,0 0,0 0,0 0,0 0,0 L 0,0 C 0,0 0,0 0,0 0,0 0,0 0,0 0,0 0,0 0,0 0,0 0,0 0,0 0,0 0,0 0,0 Z"
       id="text34"
       clip-path="url(#clipPath35)"
       transform="matrix(0.95999996,0,0,0.95999996,1057.92,551.99998)"
       aria-label="または可視化" />
    <path
       id="path36"
       d="M 1037.5,300 761.34998,484.10001"
       style="fill:none;stroke:#d6b656;stroke-width:3;stroke-linecap:butt;stroke-linejoin:miter;stroke-miterlimit:10;stroke-dasharray:none;stroke-opacity:1"
       transform="matrix(0.95999996,0,0,0.95999996,0.47999998,0.47999998)"
       clip-path="url(#clipPath37)" />
    <path
       id="path38"
       d="m 755.72998,487.85001 4.98999,-8.74002 0.63001,4.99002 4.36999,2.5 z"
       style="fill:#d6b656;fill-opacity:1;fill-rule:nonzero;stroke:#d6b656;stroke-width:3;stroke-linecap:butt;stroke-linejoin:miter;stroke-miterlimit:10;stroke-dasharray:none;stroke-opacity:1"
       transform="matrix(0.95999996,0,0,0.95999996,0.47999998,0.47999998)"
       clip-path="url(#clipPath39)" />
    <path
       id="path40"
       d="M 600,525 H 410.10001"
       style="fill:none;stroke:#cc0000;stroke-width:3;stroke-linecap:butt;stroke-linejoin:miter;stroke-miterlimit:10;stroke-dasharray:none;stroke-opacity:1"
       transform="matrix(0.95999996,0,0,0.95999996,0.47999998,0.47999998)"
       clip-path="url(#clipPath41)" />
    <path
       id="path42"
       d="m 403.35001,525 9,-4.5 -2.25,4.5 2.25,4.5 z"
       style="fill:#cc0000;fill-opacity:1;fill-rule:nonzero;stroke:#cc0000;stroke-width:3;stroke-linecap:butt;stroke-linejoin:miter;stroke-miterlimit:10;stroke-dasharray:none;stroke-opacity:1"
       transform="matrix(0.95999996,0,0,0.95999996,0.47999998,0.47999998)"
       clip-path="url(#clipPath43)" />
    <path
       id="path44"
       d="m 487,517 h 28 v 17 h -28 z"
       style="fill:#ffffff;fill-opacity:1;fill-rule:nonzero;stroke:none"
       transform="scale(0.95999996)"
       clip-path="url(#clipPath45)" />
    <path
       style="font-weight:700;font-size:14px;"
       d="M 9.2011719,-10.076172 5.8310547,-3.7871094 V 0 H 3.7255859 V -3.7871094 L 0.23925781,-10.076172 H 2.7207031 L 4.8125,-5.6875 6.8154297,-10.076172 Z m 8.2167971,5.6738283 h -4.894531 v 2.5908203 h 5.578124 V 0 H 10.46582 v -10.076172 h 7.389649 v 1.7841798 h -5.332031 v 2.1396485 h 4.894531 z m 5.981445,2.946289 q 0.745117,0 1.209961,-0.1640625 0.881836,-0.3144531 0.881836,-1.1689453 0,-0.4990234 -0.4375,-0.7724609 -0.4375,-0.2666016 -1.374024,-0.4716797 l -1.066406,-0.2392578 q -1.572265,-0.3554688 -2.173828,-0.772461 -1.018555,-0.6972656 -1.018555,-2.180664 0,-1.3535157 0.984375,-2.2490235 0.984375,-0.8955076 2.891602,-0.8955076 1.592773,0 2.713867,0.8476561 1.12793,0.8408203 1.182617,2.4472656 h -2.023437 q -0.05469,-0.9091797 -0.792969,-1.2919922 -0.492187,-0.2529297 -1.223633,-0.2529297 -0.813476,0 -1.298828,0.328125 -0.485351,0.328125 -0.485351,0.9160156 0,0.5400391 0.478515,0.8066407 0.307617,0.1777343 1.3125,0.4169922 l 1.736328,0.4169921 q 1.141602,0.2734375 1.722657,0.7314454 0.902343,0.7109375 0.902343,2.0576171 0,1.3808594 -1.05957,2.29687504 -1.052734,0.90917969 -2.980469,0.90917969 -1.96875,0 -3.096679,-0.89550782 -1.12793,-0.90234371 -1.12793,-2.47460941 h 2.009766 q 0.0957,0.6904297 0.375976,1.0322266 0.512695,0.6220703 1.756836,0.6220703 z"
       id="text45"
       clip-path="url(#clipPath46)"
       transform="matrix(0.95999996,0,0,0.95999996,467.03998,508.79998)"
       aria-label="YES" />
    <path
       id="path47"
       d="M 800,525 H 989.90002"
       style="fill:none;stroke:#82b366;stroke-width:3;stroke-linecap:butt;stroke-linejoin:miter;stroke-miterlimit:10;stroke-dasharray:none;stroke-opacity:1"
       transform="matrix(0.95999996,0,0,0.95999996,0.47999998,0.47999998)"
       clip-path="url(#clipPath48)" />
    <path
       id="path49"
       d="m 996.65002,525 -9,4.5 2.25,-4.5 -2.25,-4.5 z"
       style="fill:#82b366;fill-opacity:1;fill-rule:nonzero;stroke:#82b366;stroke-width:3;stroke-linecap:butt;stroke-linejoin:miter;stroke-miterlimit:10;stroke-dasharray:none;stroke-opacity:1"
       transform="matrix(0.95999996,0,0,0.95999996,0.47999998,0.47999998)"
       clip-path="url(#clipPath50)" />
    <path
       id="path51"
       d="m 890,517 h 21 v 17 h -21 z"
       style="fill:#ffffff;fill-opacity:1;fill-rule:nonzero;stroke:none"
       transform="scale(0.95999996)"
       clip-path="url(#clipPath52)" />
    <path
       style="font-weight:700;font-size:14px;"
       d="M 9.2148438,0 H 7.109375 L 2.9941406,-7.1572266 V 0 h -1.961914 v -10.076172 h 2.2080078 l 4.0126953,7.0341798 v -7.0341798 h 1.9619141 z m 6.4189452,0.28027344 q -2.160156,0 -3.301758,-1.17578125 -1.53125,-1.44238279 -1.53125,-4.15624999 0,-2.7685547 1.53125,-4.15625 1.141602,-1.1757812 3.301758,-1.1757812 2.160156,0 3.301758,1.1757812 1.524414,1.3876953 1.524414,4.15625 0,2.7138672 -1.524414,4.15624999 -1.141602,1.17578125 -3.301758,1.17578125 z m 1.989258,-2.70703124 q 0.731445,-0.9228516 0.731445,-2.625 0,-1.6953125 -0.738281,-2.6181641 -0.731445,-0.9296875 -1.982422,-0.9296875 -1.250976,0 -1.996094,0.9228516 -0.745117,0.9228516 -0.745117,2.625 0,1.7021484 0.745117,2.625 0.745118,0.9228516 1.996094,0.9228516 1.250977,0 1.989258,-0.9228516 z"
       id="text52"
       clip-path="url(#clipPath53)"
       transform="matrix(0.95999996,0,0,0.95999996,854.39996,508.79998)"
       aria-label="NO" />
    <path
       id="path54"
       d="m 250,450 c 0,-46.66666 0,-93.29999 0,-139.89999"
       style="fill:none;stroke:#cc0000;stroke-width:3;stroke-linecap:butt;stroke-linejoin:miter;stroke-miterlimit:10;stroke-dasharray:none;stroke-opacity:1"
       transform="matrix(0.95999996,0,0,0.95999996,0.47999998,0.47999998)"
       clip-path="url(#clipPath55)" />
    <path
       id="path56"
       d="m 250,303.35001 4.5,9 -4.5,-2.25 -4.5,2.25 z"
       style="fill:#cc0000;fill-opacity:1;fill-rule:nonzero;stroke:#cc0000;stroke-width:3;stroke-linecap:butt;stroke-linejoin:miter;stroke-miterlimit:10;stroke-dasharray:none;stroke-opacity:1"
       transform="matrix(0.95999996,0,0,0.95999996,0.47999998,0.47999998)"
       clip-path="url(#clipPath57)" />
    <path
       id="path58"
       d="m 230,367 h 42 v 17 h -42 z"
       style="fill:#ffffff;fill-opacity:1;fill-rule:nonzero;stroke:none"
       transform="scale(0.95999996)"
       clip-path="url(#clipPath59)" />
    <g
       id="g59" />
    <path
       style="font-weight:600;font-size:1e-32px;"
       d="M 0,0 H 0 C 0,0 0,0 0,0 V 0 C 0,0 0,0 0,0 H 0 V 0 C 0,0 0,0 0,0 H 0 C 0,0 0,0 0,0 V 0 H 0 V 0 C 0,0 0,0 0,0 0,0 0,0 0,0 0,0 0,0 0,0 0,0 0,0 0,0 0,0 0,0 0,0 V 0 H 0 C 0,0 0,0 0,0 V 0 C 0,0 0,0 0,0 H 0 V 0 C 0,0 0,0 0,0 0,0 0,0 0,0 H 0 V 0 H 0 C 0,0 0,0 0,0 V 0 C 0,0 0,0 0,0 H 0 C 0,0 0,0 0,0 V 0 C 0,0 0,0 0,0 H 0 V 0 H 0 C 0,0 0,0 0,0 0,0 0,0 0,0 Z M 0,0 V 0 H 0 V 0 Z M 0,0 V 0 H 0 V 0 Z M 0,0 V 0 H 0 V 0 Z M 0,0 V 0 H 0 V 0 Z M 0,0 C 0,0 0,0 0,0 H 0 C 0,0 0,0 0,0 V 0 C 0,0 0,0 0,0 H 0 C 0,0 0,0 0,0 H 0 C 0,0 0,0 0,0 V 0 C 0,0 0,0 0,0 H 0 C 0,0 0,0 0,0 0,0 0,0 0,0 0,0 0,0 0,0 0,0 0,0 0,0 0,0 0,0 0,0 0,0 0,0 0,0 0,0 0,0 0,0 0,0 0,0 0,0 0,0 0,0 0,0 0,0 0,0 0,0 0,0 0,0 0,0 H 0 C 0,0 0,0 0,0 V 0 C 0,0 0,0 0,0 H 0 C 0,0 0,0 0,0 H 0 C 0,0 0,0 0,0 V 0 C 0,0 0,0 0,0 H 0 C 0,0 0,0 0,0 H 0 C 0,0 0,0 0,0 V 0 H 0 C 0,0 0,0 0,0 V 0 C 0,0 0,0 0,0 0,0 0,0 0,0 H 0 V 0 C 0,0 0,0 0,0 H 0 C 0,0 0,0 0,0 V 0 H 0 C 0,0 0,0 0,0 0,0 0,0 0,0 V 0 C 0,0 0,0 0,0 H 0 V 0 C 0,0 0,0 0,0 Z M 0,0 C 0,0 0,0 0,0 V 0 H 0 V 0 C 0,0 0,0 0,0 H 0 C 0,0 0,0 0,0 H 0 C 0,0 0,0 0,0 Z M 0,0 V 0 C 0,0 0,0 0,0 0,0 0,0 0,0 0,0 0,0 0,0 0,0 0,0 0,0 0,0 0,0 0,0 V 0 H 0 C 0,0 0,0 0,0 V 0 C 0,0 0,0 0,0 H 0 C 0,0 0,0 0,0 V 0 C 0,0 0,0 0,0 Z M 0,0 C 0,0 0,0 0,0 0,0 0,0 0,0 0,0 0,0 0,0 0,0 0,0 0,0 0,0 0,0 0,0 Z M 0,0 C 0,0 0,0 0,0 H 0 C 0,0 0,0 0,0 V 0 C 0,0 0,0 0,0 H 0 C 0,0 0,0 0,0 Z M 0,0 C 0,0 0,0 0,0 H 0 C 0,0 0,0 0,0 V 0 C 0,0 0,0 0,0 0,0 0,0 0,0 L 0,0 C 0,0 0,0 0,0 0,0 0,0 0,0 0,0 0,0 0,0 0,0 0,0 0,0 Z"
       id="text59"
       clip-path="url(#clipPath60)"
       transform="matrix(0.95999996,0,0,0.95999996,220.31999,364.79998)"
       aria-label="再実⾏" />
    <path
       id="path61"
       d="m 312,700 h 776 c 0.7878,6e-5 1.5681,0.0769 2.3409,0.23059 0.7729,0.15369 1.5232,0.38129 2.2511,0.6828 0.728,0.30151 1.4196,0.67114 2.0748,1.10889 0.6551,0.43768 1.2612,0.93518 1.8184,1.49237 0.5572,0.55707 1.0546,1.16321 1.4922,1.81836 0.4378,0.65515 0.8074,1.34674 1.109,2.0747 0.3015,0.72797 0.5292,1.4784 0.683,2.25116 C 1099.9231,710.4317 1100,711.2121 1100,712 v 56 c 0,0.7879 -0.077,1.56824 -0.2306,2.341 -0.1538,0.77277 -0.3815,1.52307 -0.683,2.25104 -0.3016,0.72791 -0.6712,1.41943 -1.109,2.07465 -0.4376,0.65509 -0.935,1.26129 -1.4922,1.81848 -0.5572,0.55713 -1.1633,1.05456 -1.8184,1.49231 -0.6552,0.43774 -1.3468,0.80737 -2.0748,1.10895 -0.7279,0.30157 -1.4782,0.52917 -2.2511,0.68292 -0.7728,0.15375 -1.5531,0.23059 -2.3409,0.23065 H 312 c -0.78793,-6e-5 -1.56833,-0.0769 -2.34113,-0.23065 -0.77279,-0.15375 -1.52316,-0.38135 -2.25112,-0.68292 -0.72797,-0.30158 -1.41953,-0.67121 -2.07465,-1.10895 -0.65512,-0.43775 -1.26126,-0.93518 -1.81842,-1.49231 -0.55716,-0.55719 -1.05463,-1.16339 -1.49234,-1.81848 -0.43775,-0.65522 -0.80737,-1.34674 -1.10892,-2.07465 -0.30154,-0.72797 -0.52917,-1.47827 -0.68286,-2.25104 C 300.07684,769.56824 299.99997,768.7879 300,768 v -56 c -3e-5,-0.7879 0.0768,-1.5683 0.23056,-2.34113 0.15369,-0.77276 0.38132,-1.52319 0.68286,-2.25116 0.30155,-0.72796 0.67117,-1.41955 1.10892,-2.0747 0.43771,-0.65515 0.93518,-1.26129 1.49234,-1.81836 0.55716,-0.55719 1.1633,-1.05469 1.81842,-1.49243 0.65512,-0.43769 1.34668,-0.80732 2.07465,-1.10883 0.72796,-0.30151 1.47833,-0.52911 2.25112,-0.6828 0.7728,-0.15369 1.5532,-0.23053 2.34113,-0.23059 z"
       style="fill:#e1d5e7;fill-opacity:1;fill-rule:nonzero;stroke:#9673a6;stroke-width:3;stroke-linecap:butt;stroke-linejoin:miter;stroke-miterlimit:10;stroke-dasharray:none;stroke-opacity:1"
       transform="matrix(0.95999996,0,0,0.95999996,0.47999998,0.47999998)"
       clip-path="url(#clipPath62)" />
    <g
       id="g62" />
    <g
       id="g63" />
    <path
       style="font-weight:600;font-size:1e-32px;"
       d="m 0,0 c 0,0 0,0 0,0 v 0 c 0,0 0,0 0,0 0,0 0,0 0,0 0,0 0,0 0,0 l 0,0 c 0,0 0,0 0,0 v 0 c 0,0 0,0 0,0 h 0 c 0,0 0,0 0,0 v 0 c 0,0 0,0 0,0 z m 0,0 c 0,0 0,0 0,0 h 0 c 0,0 0,0 0,0 v 0 c 0,0 0,0 0,0 h 0 c 0,0 0,0 0,0 z m 0,0 c 0,0 0,0 0,0 h 0 c 0,0 0,0 0,0 v 0 c 0,0 0,0 0,0 h 0 c 0,0 0,0 0,0 0,0 0,0 0,0 0,0 0,0 0,0 0,0 0,0 0,0 0,0 0,0 0,0 0,0 0,0 0,0 z m 0,0 c 0,0 0,0 0,0 0,0 0,0 0,0 0,0 0,0 0,0 0,0 0,0 0,0 v 0 c 0,0 0,0 0,0 h 0 c 0,0 0,0 0,0 v 0 c 0,0 0,0 0,0 0,0 0,0 0,0 z m 0,0 c 0,0 0,0 0,0 h 0 c 0,0 0,0 0,0 v 0 c 0,0 0,0 0,0 h 0 c 0,0 0,0 0,0 0,0 0,0 0,0 0,0 0,0 0,0 0,0 0,0 0,0 0,0 0,0 0,0 0,0 0,0 0,0 z m 0,0 c 0,0 0,0 0,0 0,0 0,0 0,0 0,0 0,0 0,0 0,0 0,0 0,0 0,0 0,0 0,0 0,0 0,0 0,0 0,0 0,0 0,0 z m 0,0 c 0,0 0,0 0,0 l 0,0 c 0,0 0,0 0,0 z m 0,0 c 0,0 0,0 0,0 0,0 0,0 0,0 0,0 0,0 0,0 0,0 0,0 0,0 0,0 0,0 0,0 0,0 0,0 0,0 0,0 0,0 0,0 z m 0,0 c 0,0 0,0 0,0 v 0 c 0,0 0,0 0,0 0,0 0,0 0,0 0,0 0,0 0,0 l 0,0 c 0,0 0,0 0,0 v 0 c 0,0 0,0 0,0 h 0 c 0,0 0,0 0,0 v 0 c 0,0 0,0 0,0 z m 0,0 c 0,0 0,0 0,0 l 0,0 c 0,0 0,0 0,0 z m 0,0 c 0,0 0,0 0,0 l 0,0 c 0,0 0,0 0,0 z m 0,0 h 0 c 0,0 0,0 0,0 v 0 c 0,0 0,0 0,0 h 0 c 0,0 0,0 0,0 v 0 c 0,0 0,0 0,0 h 0 v 0 h 0 c 0,0 0,0 0,0 v 0 c 0,0 0,0 0,0 h 0 c 0,0 0,0 0,0 v 0 c 0,0 0,0 0,0 h 0 z m 0,0 c 0,0 0,0 0,0 h 0 c 0,0 0,0 0,0 v 0 c 0,0 0,0 0,0 h 0 c 0,0 0,0 0,0 z m 0,0 c 0,0 0,0 0,0 h 0 c 0,0 0,0 0,0 v 0 c 0,0 0,0 0,0 h 0 c 0,0 0,0 0,0 0,0 0,0 0,0 0,0 0,0 0,0 0,0 0,0 0,0 0,0 0,0 0,0 0,0 0,0 0,0 z m 0,0 c 0,0 0,0 0,0 h 0 c 0,0 0,0 0,0 v 0 c 0,0 0,0 0,0 h 0 c 0,0 0,0 0,0 z m 0,0 c 0,0 0,0 0,0 l 0,0 c 0,0 0,0 0,0 z m 0,0 c 0,0 0,0 0,0 l 0,0 c 0,0 0,0 0,0 0,0 0,0 0,0 0,0 0,0 0,0 l 0,0 c 0,0 0,0 0,0 l 0,0 c 0,0 0,0 0,0 0,0 0,0 0,0 l 0,0 c 0,0 0,0 0,0 0,0 0,0 0,0 0,0 0,0 0,0 0,0 0,0 0,0 0,0 0,0 0,0 0,0 0,0 0,0 0,0 0,0 0,0 0,0 0,0 0,0 0,0 0,0 0,0 0,0 0,0 0,0 0,0 0,0 0,0 0,0 0,0 0,0 0,0 0,0 0,0 0,0 0,0 0,0 0,0 0,0 0,0 0,0 0,0 0,0 z m 0,0 c 0,0 0,0 0,0 l 0,0 c 0,0 0,0 0,0 z m 0,0 c 0,0 0,0 0,0 l 0,0 c 0,0 0,0 0,0 z m 0,0 h 0 c 0,0 0,0 0,0 v 0 c 0,0 0,0 0,0 h 0 c 0,0 0,0 0,0 v 0 c 0,0 0,0 0,0 h 0 v 0 c 0,0 0,0 0,0 h 0 c 0,0 0,0 0,0 z m 0,0 c 0,0 0,0 0,0 0,0 0,0 0,0 h 0 c 0,0 0,0 0,0 0,0 0,0 0,0 v 0 c 0,0 0,0 0,0 0,0 0,0 0,0 h 0 c 0,0 0,0 0,0 0,0 0,0 0,0 z m 0,0 h 0 v 0 h 0 z m 0,0 c 0,0 0,0 0,0 h 0 c 0,0 0,0 0,0 v 0 h 0 v 0 c 0,0 0,0 0,0 0,0 0,0 0,0 0,0 0,0 0,0 0,0 0,0 0,0 0,0 0,0 0,0 0,0 0,0 0,0 0,0 0,0 0,0 v 0 c 0,0 0,0 0,0 0,0 0,0 0,0 h 0 c 0,0 0,0 0,0 0,0 0,0 0,0 z m 0,0 c 0,0 0,0 0,0 0,0 0,0 0,0 h 0 c 0,0 0,0 0,0 0,0 0,0 0,0 v 0 c 0,0 0,0 0,0 h 0 v 0 h 0 c 0,0 0,0 0,0 0,0 0,0 0,0 z m 0,0 h 0 v 0 h 0 z m 0,0 v 0 h 0 c 0,0 0,0 0,0 0,0 0,0 0,0 v 0 c 0,0 0,0 0,0 0,0 0,0 0,0 h 0 c 0,0 0,0 0,0 0,0 0,0 0,0 0,0 0,0 0,0 0,0 0,0 0,0 v 0 c 0,0 0,0 0,0 h 0 c 0,0 0,0 0,0 v 0 c 0,0 0,0 0,0 0,0 0,0 0,0 0,0 0,0 0,0 0,0 0,0 0,0 0,0 0,0 0,0 0,0 0,0 0,0 h 0 c 0,0 0,0 0,0 0,0 0,0 0,0 v 0 c 0,0 0,0 0,0 0,0 0,0 0,0 h 0 v 0 h 0 c 0,0 0,0 0,0 v 0 c 0,0 0,0 0,0 h 0 v 0 c 0,0 0,0 0,0 h 0 c 0,0 0,0 0,0 v 0 h 0 c 0,0 0,0 0,0 v 0 c 0,0 0,0 0,0 z m 0,0 v 0 h 0 v 0 z m 0,0 h 0 v 0 h 0 z m 0,0 c 0,0 0,0 0,0 l 0,0 c 0,0 0,0 0,0 z m 0,0 c 0,0 0,0 0,0 h 0 v 0 c 0,0 0,0 0,0 l 0,0 c 0,0 0,0 0,0 0,0 0,0 0,0 0,0 0,0 0,0 0,0 0,0 0,0 0,0 0,0 0,0 0,0 0,0 0,0 0,0 0,0 0,0 0,0 0,0 0,0 v 0 c 0,0 0,0 0,0 0,0 0,0 0,0 h 0 c 0,0 0,0 0,0 z m 0,0 c 0,0 0,0 0,0 0,0 0,0 0,0 l 0,0 c 0,0 0,0 0,0 v 0 c 0,0 0,0 0,0 h 0 c 0,0 0,0 0,0 v 0 c 0,0 0,0 0,0 0,0 0,0 0,0 0,0 0,0 0,0 0,0 0,0 0,0 0,0 0,0 0,0 0,0 0,0 0,0 0,0 0,0 0,0 z m 0,0 c 0,0 0,0 0,0 h 0 c 0,0 0,0 0,0 v 0 c 0,0 0,0 0,0 0,0 0,0 0,0 l 0,0 c 0,0 0,0 0,0 0,0 0,0 0,0 0,0 0,0 0,0 0,0 0,0 0,0 0,0 0,0 0,0 z m 0,0 c 0,0 0,0 0,0 0,0 0,0 0,0 l 0,0 c 0,0 0,0 0,0 h 0 c 0,0 0,0 0,0 l 0,0 c 0,0 0,0 0,0 0,0 0,0 0,0 z m 0,0 v 0 h 0 v 0 z m 0,0 h 0 c 0,0 0,0 0,0 0,0 0,0 0,0 v 0 c 0,0 0,0 0,0 0,0 0,0 0,0 h 0 c 0,0 0,0 0,0 0,0 0,0 0,0 v 0 c 0,0 0,0 0,0 h 0 c 0,0 0,0 0,0 z m 0,0 h 0 v 0 h 0 z m 0,0 h 0 v 0 h 0 z m 0,0 c 0,0 0,0 0,0 0,0 0,0 0,0 h 0 c 0,0 0,0 0,0 0,0 0,0 0,0 v 0 c 0,0 0,0 0,0 0,0 0,0 0,0 h 0 v 0 c 0,0 0,0 0,0 0,0 0,0 0,0 0,0 0,0 0,0 0,0 0,0 0,0 0,0 0,0 0,0 0,0 0,0 0,0 z m 0,0 h 0 v 0 h 0 z m 0,0 h 0 v 0 h 0 z m 0,0 c 0,0 0,0 0,0 0,0 0,0 0,0 h 0 c 0,0 0,0 0,0 0,0 0,0 0,0 v 0 c 0,0 0,0 0,0 h 0 v 0 h 0 c 0,0 0,0 0,0 0,0 0,0 0,0 z m 0,0 h 0 v 0 h 0 z m 0,0 c 0,0 0,0 0,0 0,0 0,0 0,0 0,0 0,0 0,0 l 0,0 c 0,0 0,0 0,0 0,0 0,0 0,0 0,0 0,0 0,0 0,0 0,0 0,0 0,0 0,0 0,0 0,0 0,0 0,0 0,0 0,0 0,0 0,0 0,0 0,0 0,0 0,0 0,0 0,0 0,0 0,0 0,0 0,0 0,0 0,0 0,0 0,0 h 0 c 0,0 0,0 0,0 0,0 0,0 0,0 v 0 c 0,0 0,0 0,0 0,0 0,0 0,0 h 0 c 0,0 0,0 0,0 h 0 c 0,0 0,0 0,0 v 0 c 0,0 0,0 0,0 h 0 c 0,0 0,0 0,0 v 0 c 0,0 0,0 0,0 h 0 c 0,0 0,0 0,0 h 0 c 0,0 0,0 0,0 0,0 0,0 0,0 v 0 c 0,0 0,0 0,0 0,0 0,0 0,0 0,0 0,0 0,0 0,0 0,0 0,0 0,0 0,0 0,0 v 0 h 0 c 0,0 0,0 0,0 v 0 c 0,0 0,0 0,0 h 0 v 0 h 0 c 0,0 0,0 0,0 v 0 c 0,0 0,0 0,0 h 0 c 0,0 0,0 0,0 v 0 c 0,0 0,0 0,0 h 0 z m 0,0 h 0 l 0,0 c 0,0 0,0 0,0 0,0 0,0 0,0 0,0 0,0 0,0 0,0 0,0 0,0 z m 0,0 h 0 v 0 h 0 z m 0,0 h 0 v 0 h 0 z m 0,0 h 0 v 0 h 0 z m 0,0 c 0,0 0,0 0,0 0,0 0,0 0,0 h 0 c 0,0 0,0 0,0 0,0 0,0 0,0 v 0 c 0,0 0,0 0,0 0,0 0,0 0,0 h 0 c 0,0 0,0 0,0 0,0 0,0 0,0 z m 0,0 h 0 v 0 h 0 z m 0,0 h 0 v 0 h 0 z m 0,0 0,0 c 0,0 0,0 0,0 h 0 c 0,0 0,0 0,0 v 0 c 0,0 0,0 0,0 h 0 c 0,0 0,0 0,0 l 0,0 c 0,0 0,0 0,0 v 0 c 0,0 0,0 0,0 h 0 c 0,0 0,0 0,0 l 0,0 c 0,0 0,0 0,0 0,0 0,0 0,0 0,0 0,0 0,0 0,0 0,0 0,0 v 0 c 0,0 0,0 0,0 h 0 v 0 h 0 v 0 h 0 c 0,0 0,0 0,0 v 0 c 0,0 0,0 0,0 0,0 0,0 0,0 z m 0,0 c 0,0 0,0 0,0 h 0 c 0,0 0,0 0,0 z m 0,0 c 0,0 0,0 0,0 0,0 0,0 0,0 h 0 c 0,0 0,0 0,0 z m 0,0 0,0 c 0,0 0,0 0,0 h 0 c 0,0 0,0 0,0 0,0 0,0 0,0 0,0 0,0 0,0 z m 0,0 c 0,0 0,0 0,0 h 0 v 0 h 0 v 0 h 0 c 0,0 0,0 0,0 h 0 c 0,0 0,0 0,0 v 0 c 0,0 0,0 0,0 h 0 v 0 h 0 c 0,0 0,0 0,0 0,0 0,0 0,0 v 0 c 0,0 0,0 0,0 0,0 0,0 0,0 h 0 c 0,0 0,0 0,0 0,0 0,0 0,0 v 0 c 0,0 0,0 0,0 0,0 0,0 0,0 h 0 v 0 h 0 c 0,0 0,0 0,0 v 0 c 0,0 0,0 0,0 z m 0,0 v 0 h 0 v 0 z m 0,0 v 0 c 0,0 0,0 0,0 h 0 c 0,0 0,0 0,0 v 0 h 0 c 0,0 0,0 0,0 v 0 c 0,0 0,0 0,0 h 0 v 0 c 0,0 0,0 0,0 0,0 0,0 0,0 l 0,0 c 0,0 0,0 0,0 0,0 0,0 0,0 0,0 0,0 0,0 0,0 0,0 0,0 0,0 0,0 0,0 0,0 0,0 0,0 0,0 0,0 0,0 0,0 0,0 0,0 z m 0,0 c 0,0 0,0 0,0 h 0 c 0,0 0,0 0,0 v 0 c 0,0 0,0 0,0 h 0 c 0,0 0,0 0,0 z m 0,0 c 0,0 0,0 0,0 0,0 0,0 0,0 h 0 c 0,0 0,0 0,0 0,0 0,0 0,0 0,0 0,0 0,0 0,0 0,0 0,0 0,0 0,0 0,0 h 0 c 0,0 0,0 0,0 0,0 0,0 0,0 z m 0,0 c 0,0 0,0 0,0 v 0 h 0 v 0 z m 0,0 c 0,0 0,0 0,0 0,0 0,0 0,0 0,0 0,0 0,0 h 0 l 0,0 c 0,0 0,0 0,0 0,0 0,0 0,0 l 0,0 c 0,0 0,0 0,0 0,0 0,0 0,0 l 0,0 c 0,0 0,0 0,0 l 0,0 c 0,0 0,0 0,0 0,0 0,0 0,0 0,0 0,0 0,0 0,0 0,0 0,0 l 0,0 c 0,0 0,0 0,0 0,0 0,0 0,0 0,0 0,0 0,0 0,0 0,0 0,0 z m 0,0 c 0,0 0,0 0,0 l 0,0 c 0,0 0,0 0,0 z m 0,0 c 0,0 0,0 0,0 0,0 0,0 0,0 l 0,0 c 0,0 0,0 0,0 0,0 0,0 0,0 z m 0,0 c 0,0 0,0 0,0 0,0 0,0 0,0 0,0 0,0 0,0 0,0 0,0 0,0 0,0 0,0 0,0 l 0,0 c 0,0 0,0 0,0 0,0 0,0 0,0 0,0 0,0 0,0 z m 0,0 c 0,0 0,0 0,0 l 0,0 c 0,0 0,0 0,0 z m 0,0 c 0,0 0,0 0,0 0,0 0,0 0,0 0,0 0,0 0,0 0,0 0,0 0,0 0,0 0,0 0,0 0,0 0,0 0,0 0,0 0,0 0,0 0,0 0,0 0,0 0,0 0,0 0,0 0,0 0,0 0,0 0,0 0,0 0,0 0,0 0,0 0,0 0,0 0,0 0,0 0,0 0,0 0,0 l 0,0 c 0,0 0,0 0,0 0,0 0,0 0,0 0,0 0,0 0,0 0,0 0,0 0,0 l 0,0 c 0,0 0,0 0,0 0,0 0,0 0,0 0,0 0,0 0,0 z m 0,0 c 0,0 0,0 0,0 0,0 0,0 0,0 0,0 0,0 0,0 0,0 0,0 0,0 0,0 0,0 0,0 0,0 0,0 0,0 0,0 0,0 0,0 0,0 0,0 0,0 l 0,0 c 0,0 0,0 0,0 0,0 0,0 0,0 0,0 0,0 0,0 0,0 0,0 0,0 l 0,0 c 0,0 0,0 0,0 z m 0,0 c 0,0 0,0 0,0 h 0 c 0,0 0,0 0,0 l 0,0 c 0,0 0,0 0,0 0,0 0,0 0,0 h 0 c 0,0 0,0 0,0 v 0 c 0,0 0,0 0,0 h 0 c 0,0 0,0 0,0 v 0 c 0,0 0,0 0,0 0,0 0,0 0,0 0,0 0,0 0,0 0,0 0,0 0,0 0,0 0,0 0,0 0,0 0,0 0,0 0,0 0,0 0,0 0,0 0,0 0,0 0,0 0,0 0,0 0,0 0,0 0,0 0,0 0,0 0,0 z m 0,0 c 0,0 0,0 0,0 0,0 0,0 0,0 z m 0,0 c 0,0 0,0 0,0 h 0 c 0,0 0,0 0,0 v 0 c 0,0 0,0 0,0 0,0 0,0 0,0 l 0,0 c 0,0 0,0 0,0 0,0 0,0 0,0 0,0 0,0 0,0 0,0 0,0 0,0 z m 0,0 c 0,0 0,0 0,0 0,0 0,0 0,0 0,0 0,0 0,0 0,0 0,0 0,0 z m 0,0 c 0,0 0,0 0,0 0,0 0,0 0,0 0,0 0,0 0,0 z m 0,0 c 0,0 0,0 0,0 0,0 0,0 0,0 0,0 0,0 0,0 0,0 0,0 0,0 0,0 0,0 0,0 z m 0,0 h 0 v 0 c 0,0 0,0 0,0 h 0 c 0,0 0,0 0,0 v 0 h 0 c 0,0 0,0 0,0 v 0 c 0,0 0,0 0,0 h 0 c 0,0 0,0 0,0 v 0 c 0,0 0,0 0,0 h 0 v 0 h 0 c 0,0 0,0 0,0 v 0 c 0,0 0,0 0,0 h 0 v 0 h 0 c 0,0 0,0 0,0 v 0 c 0,0 0,0 0,0 h 0 c 0,0 0,0 0,0 v 0 c 0,0 0,0 0,0 h 0 z m 0,0 c 0,0 0,0 0,0 0,0 0,0 0,0 0,0 0,0 0,0 0,0 0,0 0,0 0,0 0,0 0,0 0,0 0,0 0,0 0,0 0,0 0,0 0,0 0,0 0,0 0,0 0,0 0,0 0,0 0,0 0,0 0,0 0,0 0,0 0,0 0,0 0,0 0,0 0,0 0,0 0,0 0,0 0,0 z m -1.000023,0 c 0,0 0,0 0,0 0,0 0,0 0,0 0,0 0,0 0,0 0,0 0,0 0,0 0,0 0,0 0,0 0,0 0,0 0,0 0,0 0,0 0,0 v 0 c 0,0 0,0 0,0 0,0 0,0 0,0 0,0 0,0 0,0 0,0 0,0 0,0 0,0 0,0 0,0 0,0 0,0 0,0 v 0 c 0,0 0,0 0,0 0,0 0,0 0,0 0,0 0,0 0,0 0,0 0,0 0,0 z m 0,0 c 0,0 0,0 0,0 v 0 c 0,0 0,0 0,0 0,0 0,0 0,0 v 0 0 c 0,0 0,0 0,0 0,0 0,0 0,0 v 0 c 0,0 0,0 0,0 0,0 0,0 0,0 v 0 c 0,0 0,0 0,0 0,0 0,0 0,0 v 0 c 0,0 0,0 0,0 v 0 c 0,0 0,0 0,0 0,0 0,0 0,0 0,0 0,0 0,0 z m 0,0 v 0 0 0 z m 0,0 v 0 0 0 z m 0,0 c 0,0 0,0 0,0 0,0 0,0 0,0 v 0 c 0,0 0,0 0,0 0,0 0,0 0,0 v 0 c 0,0 0,0 0,0 v 0 c 0,0 0,0 0,0 v 0 0 0 c 0,0 0,0 0,0 0,0 0,0 0,0 0,0 0,0 0,0 0,0 0,0 0,0 0,0 0,0 0,0 z m 0,0 v 0 c 0,0 0,0 0,0 v 0 c 0,0 0,0 0,0 v 0 0 0 c 0,0 0,0 0,0 v 0 c 0,0 0,0 0,0 v 0 c 0,0 0,0 0,0 v 0 c 0,0 0,0 0,0 v 0 0 0 c 0,0 0,0 0,0 v 0 c 0,0 0,0 0,0 v 0 0 c 0,0 0,0 0,0 0,0 0,0 0,0 0,0 0,0 0,0 0,0 0,0 0,0 0,0 0,0 0,0 0,0 0,0 0,0 0,0 0,0 0,0 v 0 c 0,0 0,0 0,0 0,0 0,0 0,0 v 0 c 0,0 0,0 0,0 v 0 c 0,0 0,0 0,0 v 0 c 0,0 0,0 0,0 0,0 0,0 0,0 v 0 c 0,0 0,0 0,0 0,0 0,0 0,0 0,0 0,0 0,0 v 0 c 0,0 0,0 0,0 v 0 c 0,0 0,0 0,0 v 0 0 c 0,0 0,0 0,0 v 0 c 0,0 0,0 0,0 v 0 0 c 0,0 0,0 0,0 0,0 0,0 0,0 0,0 0,0 0,0 0,0 0,0 0,0 0,0 0,0 0,0 0,0 0,0 0,0 0,0 0,0 0,0 0,0 0,0 0,0 0,0 0,0 0,0 0,0 0,0 0,0 0,0 0,0 0,0 z m 0,0 c 0,0 0,0 0,0 0,0 0,0 0,0 v 0 c 0,0 0,0 0,0 0,0 0,0 0,0 0,0 0,0 0,0 0,0 0,0 0,0 v 0 c 0,0 0,0 0,0 0,0 0,0 0,0 0,0 0,0 0,0 0,0 0,0 0,0 z m 0,0 c 0,0 0,0 0,0 0,0 0,0 0,0 0,0 0,0 0,0 v 0 c 0,0 0,0 0,0 0,0 0,0 0,0 z m 0,0 c 0,0 0,0 0,0 0,0 0,0 0,0 0,0 0,0 0,0 0,0 0,0 0,0 0,0 0,0 0,0 v 0 c 0,0 0,0 0,0 0,0 0,0 0,0 0,0 0,0 0,0 z m 0,0 v 0 c 0,0 0,0 0,0 v 0 c 0,0 0,0 0,0 v 0 0 c 0,0 0,0 0,0 v 0 c 0,0 0,0 0,0 v 0 0 0 c 0,0 0,0 0,0 0,0 0,0 0,0 0,0 0,0 0,0 0,0 0,0 0,0 0,0 0,0 0,0 v 0 0 c 0,0 0,0 0,0 v 0 c 0,0 0,0 0,0 v 0 0 c 0,0 0,0 0,0 0,0 0,0 0,0 v 0 0 0 c 0,0 0,0 0,0 v 0 c 0,0 0,0 0,0 v 0 c 0,0 0,0 0,0 v 0 c 0,0 0,0 0,0 v 0 0 0 c 0,0 0,0 0,0 0,0 0,0 0,0 z m 0,0 v 0 0 0 z m 0,0 v 0 0 0 z m 0,0 v 0 0 0 z m 0,0 v 0 0 0 z m 0,0 c 0,0 0,0 0,0 v 0 c 0,0 0,0 0,0 v 0 c 0,0 0,0 0,0 v 0 c 0,0 0,0 0,0 v 0 c 0,0 0,0 0,0 v 0 c 0,0 0,0 0,0 v 0 c 0,0 0,0 0,0 0,0 0,0 0,0 0,0 0,0 0,0 0,0 0,0 0,0 0,0 0,0 0,0 0,0 0,0 0,0 0,0 0,0 0,0 0,0 0,0 0,0 0,0 0,0 0,0 0,0 0,0 0,0 0,0 0,0 0,0 v 0 c 0,0 0,0 0,0 v 0 c 0,0 0,0 0,0 v 0 c 0,0 0,0 0,0 v 0 c 0,0 0,0 0,0 v 0 c 0,0 0,0 0,0 v 0 c 0,0 0,0 0,0 v 0 c 0,0 0,0 0,0 v 0 0 c 0,0 0,0 0,0 v 0 c 0,0 0,0 0,0 0,0 0,0 0,0 v 0 0 c 0,0 0,0 0,0 v 0 c 0,0 0,0 0,0 v 0 0 c 0,0 0,0 0,0 0,0 0,0 0,0 v 0 c 0,0 0,0 0,0 v 0 0 c 0,0 0,0 0,0 z m 0,0 c 0,0 0,0 0,0 v 0 0 0 c 0,0 0,0 0,0 v 0 c 0,0 0,0 0,0 v 0 c 0,0 0,0 0,0 z m 0,0 v 0 c 0,0 0,0 0,0 0,0 0,0 0,0 0,0 0,0 0,0 0,0 0,0 0,0 0,0 0,0 0,0 v 0 0 c 0,0 0,0 0,0 v 0 c 0,0 0,0 0,0 v 0 c 0,0 0,0 0,0 v 0 c 0,0 0,0 0,0 z m 0,0 c 0,0 0,0 0,0 0,0 0,0 0,0 0,0 0,0 0,0 0,0 0,0 0,0 0,0 0,0 0,0 z m 0,0 c 0,0 0,0 0,0 v 0 c 0,0 0,0 0,0 v 0 c 0,0 0,0 0,0 v 0 c 0,0 0,0 0,0 z m 0,0 c 0,0 0,0 0,0 v 0 c 0,0 0,0 0,0 v 0 c 0,0 0,0 0,0 0,0 0,0 0,0 v 0 c 0,0 0,0 0,0 0,0 0,0 0,0 0,0 0,0 0,0 0,0 0,0 0,0 z"
       id="text63"
       clip-path="url(#clipPath63)"
       transform="matrix(0.95999996,0,0,0.95999996,384.47998,717.11997)"
       aria-label="トライアンドエラーが⾼速化！問題箇所だけ修正して即座に再実⾏" />
  </g>
</svg>
